<svg width="230" height="141" viewBox="0 0 230 141" fill="none" xmlns="http://www.w3.org/2000/svg">
<path d="M17.834 4.64941V19.5859H14.9814V12.915H11.3203V10.5566H14.9814V4.64941H17.834ZM0.875977 15.2734C5.10986 13.9482 7.8501 11.5 8.37793 8.49023H1.93164V6.1543H11.5C11.5 11.6348 8.01855 15.689 2.04395 17.542L0.875977 15.2734ZM4.35742 24.707V18.0811H7.27734V22.416H18.3506V24.707H4.35742ZM36.7012 4.62695V9.43359H39.4639V11.7695H36.7012V16.4863H33.8262V4.62695H36.7012ZM20.3496 14.6221C24.853 13.4316 27.4248 11.0957 27.874 8.26562H21.3154V5.97461H30.9961C31.0073 11.4214 27.582 15.2397 21.4951 16.9355L20.3496 14.6221ZM23.1123 20.9111C23.0898 18.3506 25.875 16.7334 30.0303 16.7334C34.1968 16.7334 36.9146 18.3506 36.9258 20.9111C36.9146 23.4941 34.1968 25.0889 30.0303 25.0889C25.875 25.0889 23.0898 23.4941 23.1123 20.9111ZM25.9424 20.9111C25.9312 22.1465 27.4585 22.854 30.0303 22.8428C32.5684 22.854 34.0957 22.1465 34.0957 20.9111C34.0957 19.6533 32.5684 18.957 30.0303 18.957C27.4585 18.957 25.9312 19.6533 25.9424 20.9111ZM50.9639 5.81738C50.9639 11.1631 47.5835 14.8691 41.5977 16.5312L40.4746 14.3076C44.8882 13.106 47.4263 10.8599 47.8979 8.1084H41.5752V5.81738H50.9639ZM44.0459 24.8193V16.8906H57.5898V24.8193H44.0459ZM46.8535 22.5732H54.7598V19.1367H46.8535V22.5732ZM51.0986 11.8369V9.50098H54.7373V4.64941H57.5898V16.082H54.7373V11.8369H51.0986ZM68.2139 8.66992C68.2026 11.1069 69.73 13.6001 73.0879 14.6221L71.6279 16.8682C69.3369 16.1382 67.731 14.667 66.8101 12.8252C65.8779 14.8467 64.2158 16.4526 61.8125 17.25L60.3301 15.0039C63.7329 13.9146 65.2939 11.2529 65.2939 8.66992V8.37793H61.0938V6.08691H72.3242V8.37793H68.2139V8.66992ZM63.6543 24.707V18.0811H66.5518V22.416H77.8945V24.707H63.6543ZM74.4805 19.4287V4.64941H77.3555V19.4287H74.4805ZM97.3457 4.62695V14.9141H94.4932V13.3418H89.8213V11.1631H94.4932V9.36621H90.0459C88.7769 12.4321 85.8569 14.3975 81.3311 15.3857L80.3652 13.0498C85.0483 12.1289 87.2046 10.186 87.5864 7.72656H81.5107V5.41309H90.7646C90.7646 6.03076 90.7197 6.62598 90.6299 7.1875H94.4932V4.62695H97.3457ZM83.7568 17.9014V15.6553H97.3457V21.248H86.6543V22.5957H97.7949V24.8643H83.7793V19.1367H94.4707V17.9014H83.7568ZM111.496 6.6709V8.31055C111.474 10.231 111.474 12.7466 110.935 16.1494L108.104 15.9248C108.576 12.96 108.621 10.77 108.644 8.96191H100.895V6.6709H111.496ZM99.8164 18.5977C100.962 18.5977 102.242 18.5864 103.567 18.5527V12.5332H106.397V18.4629C108.408 18.3843 110.44 18.2383 112.327 17.9912L112.507 20.125C108.295 20.8325 103.668 20.9111 100.086 20.8887L99.8164 18.5977ZM113.293 25.0664V4.62695H116.19V12.8477H118.976V15.2285H116.19V25.0664H113.293ZM18.3281 34.627V55.0664H15.5654V34.627H18.3281ZM1.23535 50.5068V36.9404H9.05176V39.2314H4.04297V48.1372C6.22168 48.1147 7.88379 47.9912 9.79297 47.6094L10.0176 49.9453C7.7041 50.4058 5.64893 50.5068 2.65039 50.5068H1.23535ZM7.65918 44.4199V42.084H11.3203V34.9863H13.9932V54.1455H11.3203V44.4199H7.65918ZM37.5996 34.627V55.1113H34.7021V34.627H37.5996ZM21.0908 43.3418C21.0796 38.8833 23.3594 36.0645 26.5039 36.0645C29.5811 36.0645 31.8721 38.8833 31.8721 43.3418C31.8721 47.834 29.5811 50.6416 26.5039 50.6416C23.3594 50.6416 21.0796 47.834 21.0908 43.3418ZM23.8535 43.3418C23.8423 46.3853 24.9092 48.0474 26.5039 48.0361C28.0537 48.0474 29.0981 46.3853 29.1094 43.3418C29.0981 40.3096 28.0537 38.6475 26.5039 38.6475C24.9092 38.6475 23.8423 40.3096 23.8535 43.3418ZM57.6123 34.627V55.1113H54.7822V44.1504H51.1885V41.8369H54.7822V34.627H57.6123ZM41.3057 50.4844V36.334H50.8516V38.6475H44.1582V42.0391H50.1104V44.2852H44.1582V48.1484C46.9995 48.126 49.2681 48.0249 51.7949 47.6318L52.0869 49.9229C49.0996 50.3721 46.4268 50.4731 42.9229 50.4844H41.3057ZM78.9502 50.4395V52.7979H60.2402V50.4395H68.124V47.3623H62.3965V40.4893H73.9639V38.2432H62.374V35.9521H76.7939V42.7354H65.2715V45.0264H77.2656V47.3623H70.9766V50.4395H78.9502ZM102.646 34.6494V49.5859H99.7939V42.915H96.1328V40.5566H99.7939V34.6494H102.646ZM85.6885 45.2734C89.9224 43.9482 92.6626 41.5 93.1904 38.4902H86.7441V36.1543H96.3125C96.3125 41.6348 92.8311 45.689 86.8564 47.542L85.6885 45.2734ZM89.1699 54.707V48.0811H92.0898V52.416H103.163V54.707H89.1699ZM121.514 34.627V39.4336H124.276V41.7695H121.514V46.4863H118.639V34.627H121.514ZM105.162 44.6221C109.666 43.4316 112.237 41.0957 112.687 38.2656H106.128V35.9746H115.809C115.82 41.4214 112.395 45.2397 106.308 46.9355L105.162 44.6221ZM107.925 50.9111C107.902 48.3506 110.688 46.7334 114.843 46.7334C119.009 46.7334 121.727 48.3506 121.738 50.9111C121.727 53.4941 119.009 55.0889 114.843 55.0889C110.688 55.0889 107.902 53.4941 107.925 50.9111ZM110.755 50.9111C110.744 52.1465 112.271 52.854 114.843 52.8428C117.381 52.854 118.908 52.1465 118.908 50.9111C118.908 49.6533 117.381 48.957 114.843 48.957C112.271 48.957 110.744 49.6533 110.755 50.9111ZM136.63 36.1094V37.3896C136.63 38.8047 136.63 40.8486 136.158 43.3867L133.351 43.1172C133.721 41.1631 133.811 39.6694 133.833 38.4453H126.118V36.1094H136.63ZM124.905 44.8691C126.051 44.8691 127.342 44.8691 128.701 44.8354V40.8262H131.554V44.7456C133.598 44.6558 135.675 44.4985 137.596 44.2178L137.753 46.2842C133.497 47.0703 128.712 47.1489 125.152 47.1602L124.905 44.8691ZM127.915 54.707V48.5527H130.79V52.416H142.268V54.707H127.915ZM138.696 49.9229V34.627H141.639V40.8486H144.109V43.252H141.639V49.9229H138.696ZM162.19 34.627V55.1113H159.338V34.627H162.19ZM146.131 38.6475V36.334H155.856V44.2178H149.118V47.9688C152.24 47.9463 154.879 47.7891 157.878 47.2949L158.125 49.6084C154.767 50.2036 151.724 50.3271 147.995 50.3271H146.153V41.9492H152.937V38.6475H146.131ZM186.358 34.627V42.623H189.368V44.9814H186.358V55.0664H183.528V34.627H186.358ZM170.119 39.9727V37.6816H174.746V34.9414H177.621V37.6816H182.136V39.9727H170.119ZM170.95 45.9922C170.939 43.1396 173.163 41.1069 176.184 41.1182C179.16 41.1069 181.395 43.1396 181.395 45.9922C181.395 48.8447 179.16 50.855 176.184 50.8662C173.163 50.855 170.939 48.8447 170.95 45.9922ZM173.69 45.9922C173.69 47.5757 174.735 48.519 176.184 48.5078C177.61 48.519 178.654 47.5757 178.654 45.9922C178.654 44.4199 177.61 43.4541 176.184 43.4316C174.735 43.4541 173.69 44.4199 173.69 45.9922ZM196.668 39.7705C196.657 43.0835 197.578 46.4976 200.374 48.2832L198.824 50.5068C197.05 49.4399 195.938 47.6655 195.287 45.5767C194.557 47.8901 193.333 49.833 191.479 50.9561L189.728 48.8447C192.76 46.9692 193.883 43.3643 193.883 39.9053V36.3789H196.668V39.7705ZM198.218 43.8584V41.5225H200.868V34.9189H203.541V54.123H200.868V43.8584H198.218ZM205.091 55.0664V34.627H207.831V55.0664H205.091ZM228.697 50.3271V52.6855H209.987V50.3271H214.165V45.3184C212.582 44.3638 211.627 42.915 211.627 41.1182C211.627 37.8052 214.861 35.6265 219.309 35.6152C223.733 35.6265 227.001 37.8052 227.013 41.1182C227.001 42.8813 226.081 44.3076 224.542 45.2622V50.3271H228.697ZM214.457 41.1182C214.457 43.1172 216.377 44.3525 219.309 44.3525C222.195 44.3525 224.171 43.1172 224.183 41.1182C224.171 39.063 222.195 37.8726 219.309 37.8838C216.377 37.8726 214.457 39.063 214.457 41.1182ZM216.995 50.3271H221.645V46.3516C220.915 46.4976 220.128 46.5762 219.309 46.5762C218.489 46.5762 217.714 46.4976 216.995 46.3628V50.3271Z" fill="#0F2E40"/>
<circle cx="10" cy="81" r="10" fill="white"/>
<path d="M6 80.5L9 83.5L14 78" stroke="#0F2E40" stroke-width="2"/>
<path d="M33.2656 74.9404C33.2656 78.2803 30.9731 80.646 27.1719 81.7227L26.6006 80.6387C29.6328 79.7891 31.5078 78.1558 31.7788 76.083H27.2891V74.9404H33.2656ZM28.8418 87.0693V82.1035H37.4258V87.0693H28.8418ZM30.2041 85.9561H36.0488V83.2168H30.2041V85.9561ZM33.3242 78.5732V77.416H36.0342V74.1348H37.4258V81.5615H36.0342V78.5732H33.3242ZM44.1605 76.8594C44.1605 78.5586 45.413 80.1553 47.4418 80.7998L46.724 81.8838C45.2152 81.3857 44.08 80.353 43.4794 79.042C42.8935 80.4702 41.7216 81.5981 40.1615 82.1475L39.4438 81.0488C41.4872 80.353 42.747 78.6538 42.7543 76.8594V76.2881H39.81V75.1602H47.0463V76.2881H44.1605V76.8594ZM41.5971 86.9668V82.8066H43.0033V85.8389H50.5766V86.9668H41.5971ZM48.7895 83.7148V74.1348H50.1811V83.7148H48.7895ZM63.0535 74.1201V80.7998H61.6619V79.54H58.3367V78.4561H61.6619V77.0352H58.4979C57.6849 79.0713 55.7 80.4189 52.7996 81.0928L52.3162 79.9502C55.4656 79.2544 57.1648 77.7896 57.3919 75.8633H53.0047V74.7207H58.9227C58.9227 75.1455 58.886 75.5483 58.8128 75.9365H61.6619V74.1201H63.0535ZM54.4695 82.4551V81.3564H63.0535V84.6816H55.8758V86H63.449V87.1133H54.4988V83.627H61.6619V82.4551H54.4695ZM72.2346 75.5264V76.332C72.2272 77.438 72.2272 79.1299 71.8537 81.4736L70.4768 81.3711C70.8137 79.2764 70.8503 77.7456 70.8576 76.6543H65.5256V75.5264H72.2346ZM64.7932 83.29C65.6135 83.2827 66.529 83.2754 67.4885 83.2534V79.2764H68.8654V83.2095C70.257 83.1509 71.6853 83.063 72.9963 82.8945L73.0695 83.9346C70.3376 84.374 67.2834 84.4326 64.9543 84.418L64.7932 83.29ZM73.7434 87.2451V74.1201H75.1496V79.54H77.1564V80.7266H75.1496V87.2451H73.7434ZM93.248 80.9902V82.1035H88.0332V84.5205H86.6562V82.1035H81.2363V80.9902H93.248ZM82.7305 86.9668V83.3779H84.1074V85.8389H91.915V86.9668H82.7305ZM82.8184 79.833V74.5303H84.1953V76.127H90.2744V74.5303H91.666V79.833H82.8184ZM84.1953 78.7197H90.2744V77.167H84.1953V78.7197ZM98.8402 76.0098C98.8329 77.8262 100.063 79.4888 102.092 80.1553L101.389 81.2539C99.8656 80.7266 98.7304 79.6572 98.1371 78.2876C97.5512 79.7524 96.3939 80.917 94.8412 81.4736L94.1381 80.3896C96.1815 79.6646 97.412 77.8848 97.4193 76.0098V74.75H98.8402V76.0098ZM96.057 83.7588V82.6309H104.949V87.2451H103.557V83.7588H96.057ZM103.557 82.001V74.1201H104.949V82.001H103.557ZM121.289 74.1201V87.2744H119.898V74.1201H121.289ZM111.123 76.4346V75.3066H117.276V80.0967H112.559V82.9678C114.69 82.9604 116.543 82.8579 118.74 82.499L118.872 83.6416C116.55 84.0298 114.573 84.1177 112.251 84.125H111.138V78.9834H115.855V76.4346H111.123ZM135.216 84.4912V85.6777H123.205V84.4912H128.478V81.6934H124.259V80.5947H126.222V76.4639H124.23V75.3359H134.118V76.4639H132.111V80.5947H134.074V81.6934H129.855V84.4912H135.216ZM127.599 80.5947H130.749V76.4639H127.599V80.5947ZM146.668 81.1074V82.2207H137.527V75.2041H146.536V76.332H138.934V78.1045H146.258V79.2031H138.934V81.1074H146.668ZM136.019 85.5898V84.4473H148.03V85.5898H136.019Z" fill="#0F2E40"/>
<circle cx="10" cy="106" r="10" fill="white"/>
<path d="M6 105.5L9 108.5L14 103" stroke="#0F2E40" stroke-width="2"/>
<path d="M37.4258 99.1348V108.803H36.0342V104.247H33.3096V103.09H36.0342V99.1348H37.4258ZM26.6738 106.225C29.5962 105.28 31.5811 103.5 31.8667 101.273H27.3477V100.116H33.3975C33.3828 103.544 31.0317 106.122 27.2598 107.338L26.6738 106.225ZM28.9736 111.967V107.807H30.3799V110.839H37.7627V111.967H28.9736ZM49.6098 99.1201V102.431H51.5141V103.559H49.6098V106.913H48.2182V99.1201H49.6098ZM39.2826 105.888C42.3588 105.023 44.2411 103.31 44.4975 101.186H39.8686V100.058H46.0063C46.0063 103.449 43.6991 105.902 39.8539 107.016L39.2826 105.888ZM41.0697 109.638C41.0551 108.041 42.7836 107.052 45.4203 107.06C48.0644 107.052 49.7563 108.041 49.7563 109.638C49.7563 111.249 48.0644 112.223 45.4203 112.23C42.7836 112.223 41.0551 111.249 41.0697 109.638ZM42.4467 109.638C42.4394 110.561 43.5819 111.125 45.4203 111.132C47.244 111.125 48.3939 110.561 48.3939 109.638C48.3939 108.715 47.244 108.151 45.4203 108.158C43.5819 108.151 42.4394 108.715 42.4467 109.638ZM56.8865 101.01C56.8792 102.826 58.1097 104.489 60.1385 105.155L59.4354 106.254C57.9119 105.727 56.7767 104.657 56.1834 103.288C55.5975 104.752 54.4402 105.917 52.8875 106.474L52.1844 105.39C54.2278 104.665 55.4583 102.885 55.4656 101.01V99.75H56.8865V101.01ZM54.1033 108.759V107.631H62.9949V112.245H61.6033V108.759H54.1033ZM61.6033 107.001V99.1201H62.9949V107.001H61.6033ZM75.2375 99.1055V102.914H77.1564V104.071H75.2375V108.612H73.8459V99.1055H75.2375ZM65.5109 106.342V100.233H71.3703V101.361H66.8879V105.185C69.444 105.192 70.8796 105.111 72.5275 104.774L72.6887 105.902C70.9162 106.254 69.3635 106.342 66.551 106.342H65.5109ZM66.9172 111.967V107.631H68.3088V110.839H75.7941V111.967H66.9172ZM88.0514 99.1201V102.226H89.9557V103.383H88.0514V106.781H86.6598V99.1201H88.0514ZM78.2516 106.02V99.8672H79.6139V101.771H83.0563V99.8672H84.4332V106.02H78.2516ZM79.6139 104.921H83.0563V102.87H79.6139V104.921ZM79.6871 112.055V107.47H88.1539V108.583H81.0787V110.956H88.3883V112.055H79.6871ZM101.466 99.1201V112.245H100.06V99.1201H101.466ZM90.6846 108.729C94.1709 107.067 95.8774 104.701 96.1484 101.64H91.3145V100.526H97.5547C97.5547 104.372 95.9214 107.697 91.417 109.857L90.6846 108.729Z" fill="#0F2E40"/>
<circle cx="10" cy="131" r="10" fill="white"/>
<path d="M6 130.5L9 133.5L14 128" stroke="#0F2E40" stroke-width="2"/>
<path d="M31.2588 126.01C31.2515 127.826 32.4819 129.489 34.5107 130.155L33.8076 131.254C32.2842 130.727 31.1489 129.657 30.5557 128.288C29.9697 129.752 28.8125 130.917 27.2598 131.474L26.5566 130.39C28.6001 129.665 29.8306 127.885 29.8379 126.01V124.75H31.2588V126.01ZM28.4756 133.759V132.631H37.3672V137.245H35.9756V133.759H28.4756ZM35.9756 132.001V124.12H37.3672V132.001H35.9756ZM43.8529 127.46C43.8383 129.782 45.1933 132.162 47.1488 133.114L46.2846 134.228C44.8563 133.48 43.7504 132.016 43.1718 130.265C42.5858 132.125 41.4359 133.7 39.9418 134.477L39.0775 133.349C41.0917 132.382 42.454 129.862 42.4613 127.46V125.219H43.8529V127.46ZM48.1303 137.245V124.12H49.5219V129.35H51.6313V130.536H49.5219V137.245H48.1303ZM63.0242 124.12V137.245H61.618V124.12H63.0242ZM52.243 133.729C55.7293 132.067 57.4358 129.701 57.7068 126.64H52.8729V125.526H59.1131C59.1131 129.372 57.4798 132.697 52.9754 134.857L52.243 133.729ZM76.9221 131.283V132.411H64.9104V131.283H70.2277V130.038H66.4484V126.698H74.0217V125.526H66.4191V124.428H75.4133V127.724H67.8254V128.954H75.677V130.038H71.6047V131.283H76.9221ZM66.258 134.447V133.334H75.4865V137.143H74.0803V134.447H66.258ZM87.9635 124.12V129.438H90.0729V130.595H87.9635V137.245H86.5865V124.12H87.9635ZM77.6656 127.313V126.171H80.9029V124.296H82.2945V126.171H85.4439V127.313H77.6656ZM78.3395 131.327C78.3395 129.54 79.7164 128.28 81.6061 128.28C83.4884 128.28 84.8653 129.54 84.8727 131.327C84.8653 133.129 83.4884 134.381 81.6061 134.389C79.7164 134.381 78.3395 133.129 78.3395 131.327ZM79.6725 131.327C79.6651 132.47 80.4855 133.231 81.6061 133.217C82.7193 133.231 83.5323 132.47 83.5396 131.327C83.5323 130.207 82.7193 129.43 81.6061 129.423C80.4855 129.43 79.6651 130.207 79.6725 131.327ZM101.466 124.12V137.245H100.06V124.12H101.466ZM90.6846 133.729C94.1709 132.067 95.8774 129.701 96.1484 126.64H91.3145V125.526H97.5547C97.5547 129.372 95.9214 132.697 91.417 134.857L90.6846 133.729Z" fill="#0F2E40"/>
</svg>
