<svg width="20" height="20" viewBox="0 0 20 20" fill="none" xmlns="http://www.w3.org/2000/svg">
<rect x="1" y="5" width="18" height="1" fill="black"/>
<path d="M12 1.5C12.8284 1.5 13.5 2.17157 13.5 3L13.5 5.5L6.5 5.5L6.5 3C6.5 2.17157 7.17157 1.5 8 1.5L12 1.5Z" stroke="black"/>
<rect x="9" y="8" width="8" height="1" transform="rotate(90 9 8)" fill="black"/>
<rect x="12" y="8" width="8" height="1" transform="rotate(90 12 8)" fill="black"/>
<path d="M3.5 5.5H16.5V17C16.5 17.8284 15.8284 18.5 15 18.5H5C4.17157 18.5 3.5 17.8284 3.5 17V5.5Z" stroke="black"/>
</svg>
