<svg width="38" height="38" viewBox="0 0 38 38" fill="none" xmlns="http://www.w3.org/2000/svg">
<rect width="38" height="38" rx="19" fill="white"/>
<rect x="12" y="6" width="14" height="22" fill="#E8E1E1"/>
<rect x="14" y="8" width="10" height="2" fill="#BCB1B1"/>
<rect x="14" y="11" width="6" height="2" fill="#BCB1B1"/>
<rect x="14" y="14" width="6" height="2" fill="#BCB1B1"/>
<rect width="30" height="9" transform="translate(4 14)" fill="#1D1D1D"/>
<path d="M6.52441 21L5.10938 16.0508H6.23047L7.06445 19.5098H7.10547L8.01465 16.0508H8.97852L9.8877 19.5166H9.92871L10.7627 16.0508H11.8838L10.4688 21H9.46387L8.52051 17.7324H8.47949L7.5293 21H6.52441ZM12.3402 21V16.0508H15.6624V16.8984H13.3655V18.1016H15.4915V18.9492H13.3655V20.1523H15.6693V21H12.3402ZM16.3922 21V16.0508H19.7145V16.8984H17.4176V18.1016H19.5436V18.9492H17.4176V20.1523H19.7213V21H16.3922ZM20.4443 21V16.0508H21.4697V18.2451H21.538L23.3359 16.0508H24.5732L22.7275 18.2656L24.5937 21H23.3632L21.9892 18.9561L21.4697 19.585V21H20.4443ZM25.0159 21V16.0508H26.0413V20.1523H28.1741V21H25.0159ZM27.8512 16.0508H29.0064L30.148 18.1836H30.1959L31.3307 16.0508H32.4859L30.6812 19.2363V21H29.6559V19.2363L27.8512 16.0508Z" fill="#FFA361"/>
<path fill-rule="evenodd" clip-rule="evenodd" d="M31 27C31 29.2091 29.2091 31 27 31C24.7909 31 23 29.2091 23 27C23 24.7909 24.7909 23 27 23C29.2091 23 31 24.7909 31 27ZM30.4765 31.8907C29.4957 32.5892 28.2958 33 27 33C23.6863 33 21 30.3137 21 27C21 23.6863 23.6863 21 27 21C30.3137 21 33 23.6863 33 27C33 28.2958 32.5892 29.4957 31.8907 30.4765L34.7071 33.2929L33.2929 34.7071L30.4765 31.8907Z" fill="#848484"/>
</svg>
