<svg width="38" height="38" viewBox="0 0 38 38" fill="none" xmlns="http://www.w3.org/2000/svg">
<rect width="38" height="38" rx="19" fill="white"/>
<circle cx="19" cy="18" r="9" fill="#E9EBED"/>
<path d="M18.1797 14.9531C18.1836 13.9805 18.4453 13.6836 18.9141 13.3906C19.25 13.1719 19.5117 12.9297 19.5078 12.5703C19.5117 12.1797 19.207 11.9258 18.8281 11.9219C18.4648 11.9258 18.125 12.168 18.1094 12.625H17C17.0195 11.5273 17.8359 11 18.8359 11C19.9258 11 20.6953 11.5664 20.6953 12.5312C20.6953 13.1758 20.3633 13.582 19.8516 13.8906C19.4102 14.1523 19.2148 14.4062 19.2109 14.9531V15.0391H18.1797V14.9531ZM18.0625 16.1484C18.0547 15.7891 18.3516 15.4961 18.7188 15.5C19.0664 15.4961 19.3672 15.7891 19.3672 16.1484C19.3672 16.5117 19.0664 16.8047 18.7188 16.8047C18.3516 16.8047 18.0547 16.5117 18.0625 16.1484Z" fill="#B1B8BF"/>
<mask id="mask0_272_3416" style="mask-type:alpha" maskUnits="userSpaceOnUse" x="8" y="17" width="22" height="12">
<path d="M8.07564 19.1521C7.76937 18.2611 8.43136 17.3335 9.37351 17.3335H28.6268C29.5362 17.3335 30.1942 18.202 29.9479 19.0775L28.5468 24.0592C27.8393 26.5748 25.545 28.3128 22.9319 28.3128H15.3874C12.8968 28.3128 10.6811 26.7314 9.87143 24.3762L8.07564 19.1521Z" fill="#CBBEAB"/>
</mask>
<g mask="url(#mask0_272_3416)">
<path d="M8.07564 19.1521C7.76937 18.2611 8.43136 17.3335 9.37351 17.3335H28.6268C29.5362 17.3335 30.1942 18.202 29.9479 19.0775L28.5468 24.0592C27.8393 26.5748 25.545 28.3128 22.9319 28.3128H15.3874C12.8968 28.3128 10.6811 26.7314 9.87143 24.3762L8.07564 19.1521Z" fill="url(#paint0_linear_272_3416)"/>
<rect x="8.13672" y="20.7644" width="21.6155" height="2.74483" fill="#978974" fill-opacity="0.3"/>
</g>
<defs>
<linearGradient id="paint0_linear_272_3416" x1="8.91718" y1="24.5737" x2="28.2536" y2="24.8806" gradientUnits="userSpaceOnUse">
<stop stop-color="#D7CAB7"/>
<stop offset="0.369792" stop-color="#E7D9C6"/>
<stop offset="1" stop-color="#B6AA97"/>
</linearGradient>
</defs>
</svg>
