<svg width="38" height="38" viewBox="0 0 38 38" fill="none" xmlns="http://www.w3.org/2000/svg">
<rect width="38" height="38" rx="19" fill="white"/>
<path fill-rule="evenodd" clip-rule="evenodd" d="M16.0174 15.2315C15.8981 15.268 15.7748 15.2953 15.6483 15.3123C15.4937 16.638 14.3669 17.6668 12.9997 17.6668C11.5269 17.6668 10.333 16.4729 10.333 15.0001C10.333 13.5273 11.5269 12.3334 12.9997 12.3334C13.0319 12.3334 13.0639 12.334 13.0958 12.3351C13.3821 11.3704 14.2754 10.6667 15.3331 10.6667C16.1697 10.6667 16.9036 11.1071 17.3154 11.7687C17.5318 11.7024 17.7616 11.6668 17.9997 11.6668C19.2884 11.6668 20.3331 12.7114 20.3331 14.0001C20.3331 15.2888 19.2884 16.3335 17.9997 16.3335C17.1631 16.3335 16.4292 15.8931 16.0174 15.2315Z" fill="url(#paint0_linear_200_3308)"/>
<circle cx="10.3335" cy="14.6668" r="1.00001" fill="#DA5218"/>
<path d="M16.1342 12.2163C16.0107 11.9693 15.7104 11.8692 15.4634 11.9927C15.2164 12.1162 15.1163 12.4166 15.2398 12.6635L16.1342 12.2163ZM15.2398 12.6635C15.4339 13.0517 15.5271 13.569 15.5529 14.0898C15.5784 14.6043 15.5361 15.0754 15.492 15.3396L16.4784 15.504C16.5337 15.1719 16.5809 14.6291 16.5517 14.0403C16.5228 13.4579 16.4173 12.7824 16.1342 12.2163L15.2398 12.6635Z" fill="#2D951D"/>
<path d="M13.4771 13.1881C13.2315 13.0619 12.9301 13.1586 12.8038 13.4042C12.6776 13.6498 12.7744 13.9513 13.02 14.0775L13.4771 13.1881ZM13.02 14.0775C13.4383 14.2926 13.9129 14.8514 14.2941 15.4655C14.4773 15.7606 14.6236 16.0436 14.7181 16.2628C14.7657 16.3734 14.7962 16.4589 14.8124 16.5162C14.8163 16.5299 14.8189 16.5404 14.8206 16.5481C14.8223 16.556 14.8227 16.5593 14.8226 16.5585C14.8226 16.5582 14.8214 16.5499 14.8214 16.5353C14.8214 16.522 14.8222 16.4923 14.8314 16.4531L15.8051 16.6809C15.8298 16.5753 15.8209 16.4795 15.8138 16.4262C15.8055 16.3638 15.7909 16.3018 15.7749 16.2449C15.7427 16.1307 15.6943 16.0015 15.6365 15.8673C15.5201 15.597 15.3498 15.27 15.1437 14.9381C14.7465 14.2982 14.1522 13.5351 13.4771 13.1881L13.02 14.0775Z" fill="#2D951D"/>
<path fill-rule="evenodd" clip-rule="evenodd" d="M21.0186 11.102C21.4304 10.4404 22.1642 10 23.0009 10C24.0586 10 24.9519 10.7037 25.2382 11.6684C25.2701 11.6673 25.3021 11.6667 25.3343 11.6667C26.8071 11.6667 28.001 12.8606 28.001 14.3334C28.001 15.8061 26.8071 17.0001 25.3343 17.0001H20.0009V15.6431C18.8701 15.4813 18.0009 14.5089 18.0009 13.3334C18.0009 12.0447 19.0456 11 20.3342 11C20.5724 11 20.8022 11.0357 21.0186 11.102Z" fill="url(#paint1_linear_200_3308)"/>
<path d="M23.3185 12.8964C23.4058 12.6344 23.2642 12.3513 23.0022 12.2639C22.7403 12.1766 22.4571 12.3182 22.3698 12.5802L23.3185 12.8964ZM22.8441 12.7383C22.3698 12.5802 22.3698 12.5802 22.3698 12.5802C22.3698 12.5802 22.3698 12.5802 22.3698 12.5802C22.3698 12.5802 22.3697 12.5803 22.3697 12.5803C22.3697 12.5804 22.3696 12.5806 22.3696 12.5808C22.3694 12.5813 22.3692 12.5819 22.3689 12.5828C22.3683 12.5845 22.3675 12.587 22.3664 12.5904C22.3641 12.5972 22.3608 12.6072 22.3564 12.6204C22.3476 12.6466 22.3348 12.685 22.3185 12.7339C22.2859 12.8318 22.2393 12.9715 22.1834 13.1393C22.0716 13.4747 21.9225 13.922 21.7734 14.3693L22.7221 14.6855C22.8712 14.2383 23.0203 13.791 23.1321 13.4555C23.188 13.2878 23.2346 13.148 23.2672 13.0501C23.2835 13.0012 23.2963 12.9628 23.3051 12.9366C23.3094 12.9235 23.3128 12.9134 23.315 12.9067C23.3162 12.9033 23.317 12.9007 23.3176 12.899C23.3179 12.8981 23.3181 12.8975 23.3182 12.897C23.3183 12.8968 23.3184 12.8967 23.3184 12.8966C23.3184 12.8965 23.3184 12.8965 23.3184 12.8964C23.3185 12.8964 23.3185 12.8964 23.3185 12.8964C23.3185 12.8964 23.3185 12.8964 22.8441 12.7383ZM21.7734 14.3693C21.5919 14.9137 21.5984 15.5168 21.638 15.9518C21.6583 16.1753 21.6887 16.368 21.7142 16.5054C21.7269 16.5744 21.7385 16.63 21.7472 16.6693C21.7515 16.689 21.7552 16.7046 21.7578 16.7159C21.7591 16.7215 21.7602 16.726 21.761 16.7294C21.7614 16.7311 21.7618 16.7325 21.7621 16.7336C21.7622 16.7341 21.7623 16.7346 21.7624 16.735C21.7625 16.7352 21.7625 16.7354 21.7625 16.7356C21.7626 16.7357 21.7626 16.7358 21.7626 16.7358C21.7626 16.7359 21.7627 16.736 22.2477 16.6148C22.7328 16.4935 22.7328 16.4936 22.7328 16.4937C22.7329 16.4937 22.7329 16.4938 22.7329 16.4938C22.7329 16.4939 22.7329 16.494 22.7329 16.4941C22.733 16.4942 22.733 16.4942 22.733 16.4942C22.733 16.4942 22.7329 16.4938 22.7327 16.4932C22.7325 16.492 22.7319 16.4897 22.7311 16.4864C22.7295 16.4797 22.727 16.4689 22.7238 16.4542C22.7173 16.4248 22.708 16.3802 22.6974 16.3234C22.6763 16.2093 22.6508 16.0478 22.6339 15.8613C22.5989 15.4762 22.6054 15.0357 22.7221 14.6855L21.7734 14.3693Z" fill="#4A6C11"/>
<circle cx="18.6664" cy="18.3334" r="4.33337" fill="url(#paint2_radial_200_3308)"/>
<path d="M17.5955 15.4218L16.8799 15.1236L17.2377 15.72L16.8799 16.3164L17.5955 16.0182L17.9534 16.6146V16.0182H18.669L17.9534 15.72L18.3112 14.8254L17.5955 15.4218Z" fill="url(#paint3_linear_200_3308)"/>
<path d="M20.333 19.5577C22.4045 12.608 27.0652 13.1565 29.9998 13.5223C29.8271 17.5457 28.4807 21.3134 20.333 19.5577Z" fill="url(#paint4_linear_200_3308)"/>
<path d="M25.0212 17.3683C25.3352 17.7645 25.5115 18.1773 25.5616 18.5067C25.6142 18.8523 25.5209 18.9976 25.4641 19.0426C25.4073 19.0876 25.2445 19.1452 24.9201 19.0151C24.6108 18.891 24.2493 18.625 23.9353 18.2288C23.6214 17.8326 23.445 17.4198 23.3949 17.0903C23.3423 16.7448 23.4356 16.5995 23.4924 16.5544C23.5493 16.5094 23.7121 16.4518 24.0365 16.582C24.3457 16.706 24.7073 16.9721 25.0212 17.3683Z" stroke="#C73AC1"/>
<path d="M26.8108 16.1757C27.1247 16.5719 27.3011 16.9847 27.3512 17.3141C27.4038 17.6596 27.3105 17.805 27.2536 17.85C27.1968 17.895 27.034 17.9526 26.7096 17.8225C26.4004 17.6984 26.0388 17.4323 25.7249 17.0361C25.4109 16.6399 25.2345 16.2271 25.1844 15.8977C25.1319 15.5522 25.2252 15.4068 25.282 15.3618C25.3388 15.3168 25.5016 15.2592 25.826 15.3893C26.1353 15.5134 26.4968 15.7795 26.8108 16.1757Z" stroke="#C73AC1"/>
<path d="M10.7517 14.4557L10.3857 14.6678C9.30668 15.2932 9.05697 16.7428 9.86451 17.6932L13.8043 22.3298C14.4064 23.0384 15.4338 23.2049 16.2289 22.7229C17.158 22.1596 17.4235 20.9316 16.8101 20.0348L13.4054 15.0569C12.8145 14.1929 11.6573 13.9307 10.7517 14.4557Z" fill="url(#paint5_linear_200_3308)"/>
<path d="M12.8383 16.7034C13.0822 16.5739 13.175 16.2712 13.0455 16.0273C12.916 15.7834 12.6133 15.6907 12.3694 15.8202L12.8383 16.7034ZM10.2046 18.1018L12.8383 16.7034L12.3694 15.8202L9.73568 17.2185L10.2046 18.1018Z" fill="#D34334"/>
<path d="M13.9243 17.4771C14.1682 17.3476 14.2609 17.0449 14.1314 16.801C14.0019 16.5571 13.6992 16.4644 13.4553 16.5939L13.9243 17.4771ZM11.2906 18.8755L13.9243 17.4771L13.4553 16.5939L10.8216 17.9922L11.2906 18.8755Z" fill="#D34334"/>
<mask id="mask0_200_3308" style="mask-type:alpha" maskUnits="userSpaceOnUse" x="8" y="17" width="22" height="12">
<path d="M8.60767 19.1003C8.31011 18.2347 8.95326 17.3335 9.86859 17.3335H28.5738C29.4573 17.3335 30.0966 18.1773 29.8573 19.0278L28.4961 23.8678C27.8087 26.3117 25.5798 28.0003 23.041 28.0003H15.7113C13.2916 28.0003 11.1389 26.4639 10.3523 24.1757L8.60767 19.1003Z" fill="#CBBEAB"/>
</mask>
<g mask="url(#mask0_200_3308)">
<path d="M8.60767 19.1003C8.31011 18.2347 8.95326 17.3335 9.86859 17.3335H28.5738C29.4573 17.3335 30.0966 18.1773 29.8573 19.0278L28.4961 23.8678C27.8087 26.3117 25.5798 28.0003 23.041 28.0003H15.7113C13.2916 28.0003 11.1389 26.4639 10.3523 24.1757L8.60767 19.1003Z" fill="url(#paint6_linear_200_3308)"/>
<rect x="8.66699" y="20.6667" width="21.0002" height="2.66669" fill="#978974" fill-opacity="0.3"/>
</g>
<defs>
<linearGradient id="paint0_linear_200_3308" x1="15.3331" y1="10.6667" x2="15.3331" y2="17.6668" gradientUnits="userSpaceOnUse">
<stop stop-color="#48C633"/>
<stop offset="1" stop-color="#20970D"/>
</linearGradient>
<linearGradient id="paint1_linear_200_3308" x1="23.0009" y1="10" x2="23.0009" y2="17.0001" gradientUnits="userSpaceOnUse">
<stop stop-color="#8BC729"/>
<stop offset="1" stop-color="#3D6102"/>
</linearGradient>
<radialGradient id="paint2_radial_200_3308" cx="0" cy="0" r="1" gradientUnits="userSpaceOnUse" gradientTransform="translate(17.4997 16) rotate(52.4314) scale(5.46712)">
<stop stop-color="#FFAF37"/>
<stop offset="1" stop-color="#EA7521"/>
</radialGradient>
<linearGradient id="paint3_linear_200_3308" x1="17.7745" y1="14.8254" x2="17.7745" y2="16.6146" gradientUnits="userSpaceOnUse">
<stop stop-color="#559D5C"/>
<stop offset="1" stop-color="#99BE30"/>
</linearGradient>
<linearGradient id="paint4_linear_200_3308" x1="24.6664" y1="14.1668" x2="28.1664" y2="18.1669" gradientUnits="userSpaceOnUse">
<stop stop-color="#9C2F98"/>
<stop offset="1" stop-color="#631A60"/>
</linearGradient>
<linearGradient id="paint5_linear_200_3308" x1="9.16668" y1="16.8336" x2="13.1667" y2="14.8336" gradientUnits="userSpaceOnUse">
<stop stop-color="#FB6F33"/>
<stop offset="1" stop-color="#FB3F33"/>
</linearGradient>
<linearGradient id="paint6_linear_200_3308" x1="9.42526" y1="24.3676" x2="28.2112" y2="24.6658" gradientUnits="userSpaceOnUse">
<stop stop-color="#D7CAB7"/>
<stop offset="0.369792" stop-color="#E7D9C6"/>
<stop offset="1" stop-color="#B6AA97"/>
</linearGradient>
</defs>
</svg>
