<svg width="38" height="38" viewBox="0 0 38 38" fill="none" xmlns="http://www.w3.org/2000/svg">
<rect width="38" height="38" rx="19" fill="white"/>
<rect x="12" y="6" width="14" height="22" fill="#E8E1E1"/>
<rect x="14" y="8" width="10" height="2" fill="#BCB1B1"/>
<rect x="14" y="11" width="6" height="2" fill="#BCB1B1"/>
<rect x="14" y="14" width="6" height="2" fill="#BCB1B1"/>
<rect width="36" height="9" transform="translate(1 14)" fill="#1D1D1D"/>
<path d="M2.41699 16.0508H3.68848L5.0625 19.4072H5.11719L6.49121 16.0508H7.7627V21H6.76465V17.7598H6.72363L5.43164 20.9795H4.74805L3.45605 17.7461H3.41504V21H2.41699V16.0508ZM13.0589 18.5254C13.0589 20.1421 12.0574 21.0684 10.7484 21.0684C9.42902 21.0684 8.43098 20.1353 8.43098 18.5254C8.43098 16.9087 9.42902 15.9824 10.7484 15.9824C12.0574 15.9824 13.0589 16.9087 13.0589 18.5254ZM9.47687 18.5254C9.47687 19.5815 9.97932 20.1558 10.7484 20.1592C11.5106 20.1558 12.0164 19.5815 12.013 18.5254C12.0164 17.4658 11.5106 16.895 10.7484 16.8916C9.97932 16.895 9.47687 17.4658 9.47687 18.5254ZM17.8561 16.0508V21H16.9674L14.7936 17.8555H14.7526V21H13.7272V16.0508H14.6295L16.7897 19.1953H16.8375V16.0508H17.8561ZM18.4287 16.8984V16.0508H22.4824V16.8984H20.9648V21H19.9463V16.8984H18.4287ZM23.0481 21V16.0508H24.0735V18.1016H26.22V16.0508H27.2522V21H26.22V18.9492H24.0735V21H23.0481ZM28.0162 21V16.0508H29.0416V20.1523H31.1744V21H28.0162ZM30.8515 16.0508H32.0068L33.1484 18.1836H33.1962L34.331 16.0508H35.4862L33.6816 19.2363V21H32.6562V19.2363L30.8515 16.0508Z" fill="#51DDA2"/>
<path fill-rule="evenodd" clip-rule="evenodd" d="M31 27C31 29.2091 29.2091 31 27 31C24.7909 31 23 29.2091 23 27C23 24.7909 24.7909 23 27 23C29.2091 23 31 24.7909 31 27ZM30.4765 31.8907C29.4957 32.5892 28.2958 33 27 33C23.6863 33 21 30.3137 21 27C21 23.6863 23.6863 21 27 21C30.3137 21 33 23.6863 33 27C33 28.2958 32.5892 29.4957 31.8907 30.4765L34.7071 33.2929L33.2929 34.7071L30.4765 31.8907Z" fill="#848484"/>
</svg>
