<svg width="52" height="52" viewBox="0 0 52 52" fill="none" xmlns="http://www.w3.org/2000/svg">
<circle cx="26" cy="26" r="26" fill="white"/>
<path fill-rule="evenodd" clip-rule="evenodd" d="M20.5539 19.6807C20.354 19.742 20.1472 19.7876 19.9351 19.8163C19.6758 22.0391 17.7863 23.7642 15.4939 23.7642C13.0244 23.7642 11.0225 21.7623 11.0225 19.2927C11.0225 16.8232 13.0244 14.8213 15.4939 14.8213C15.5479 14.8213 15.6016 14.8222 15.6551 14.8241C16.1352 13.2065 17.633 12.0266 19.4065 12.0266C20.8094 12.0266 22.0399 12.765 22.7304 13.8744C23.0933 13.7632 23.4786 13.7034 23.8779 13.7034C26.0387 13.7034 27.7904 15.4551 27.7904 17.6159C27.7904 19.7768 26.0387 21.5285 23.8779 21.5285C22.475 21.5285 21.2445 20.7901 20.5539 19.6807Z" fill="url(#paint0_linear_61_1042)"/>
<circle cx="11.023" cy="18.7337" r="1.6768" fill="#DA5218"/>
<path d="M20.4472 14.7764C20.3237 14.5294 20.0234 14.4293 19.7764 14.5528C19.5294 14.6763 19.4293 14.9766 19.5528 15.2236L20.4472 14.7764ZM19.5528 15.2236C19.9083 15.9346 20.0688 16.8556 20.1131 17.7497C20.1571 18.6376 20.0845 19.4517 20.0068 19.9178L20.9932 20.0822C21.0822 19.5483 21.1596 18.6624 21.1119 17.7003C21.0645 16.7444 20.8917 15.6654 20.4472 14.7764L19.5528 15.2236Z" fill="#2D951D"/>
<path d="M16.1397 16.5553C15.8941 16.4291 15.5927 16.5258 15.4664 16.7714C15.3402 17.017 15.437 17.3184 15.6826 17.4447L16.1397 16.5553ZM15.6826 17.4447C16.471 17.85 17.3072 18.8561 17.9518 19.8945C18.2667 20.4018 18.5202 20.8912 18.686 21.2761C18.7693 21.4695 18.8266 21.6276 18.8591 21.7431C18.8755 21.8011 18.8831 21.8395 18.8859 21.861C18.89 21.8915 18.8814 21.8631 18.8947 21.8061L19.8684 22.0339C19.896 21.916 19.8871 21.8032 19.8771 21.7287C19.866 21.645 19.8458 21.5577 19.8216 21.4718C19.773 21.2995 19.6979 21.0976 19.6044 20.8806C19.4167 20.4446 19.1392 19.9112 18.8014 19.3671C18.1408 18.3029 17.1848 17.0925 16.1397 16.5553L15.6826 17.4447Z" fill="#2D951D"/>
<path fill-rule="evenodd" clip-rule="evenodd" d="M28.939 12.7565C29.6296 11.6471 30.86 10.9087 32.263 10.9087C34.0364 10.9087 35.5343 12.0886 36.0143 13.7062C36.0678 13.7043 36.1216 13.7034 36.1755 13.7034C38.645 13.7034 40.647 15.7053 40.647 18.1748C40.647 20.6443 38.645 22.6463 36.1755 22.6463H27.2326V20.3709C25.3365 20.0997 23.879 18.4691 23.879 16.498C23.879 14.3372 25.6307 12.5855 27.7915 12.5855C28.1908 12.5855 28.5761 12.6453 28.939 12.7565Z" fill="url(#paint1_linear_61_1042)"/>
<path d="M32.4744 15.6581C32.5617 15.3961 32.4201 15.113 32.1581 15.0257C31.8962 14.9383 31.613 15.0799 31.5257 15.3419L32.4744 15.6581ZM32 15.5C31.5257 15.3419 31.5257 15.3419 31.5257 15.3419C31.5257 15.3419 31.5257 15.3419 31.5257 15.342C31.5256 15.342 31.5256 15.3421 31.5256 15.3422C31.5255 15.3423 31.5254 15.3426 31.5253 15.343C31.5251 15.3437 31.5247 15.3448 31.5242 15.3462C31.5233 15.3491 31.5218 15.3534 31.5199 15.3591C31.5162 15.3705 31.5105 15.3873 31.5032 15.4093C31.4886 15.4532 31.4671 15.5177 31.4397 15.5997C31.385 15.7638 31.3069 15.9981 31.2132 16.2794C31.0257 16.8419 30.7757 17.5919 30.5257 18.3419L31.4744 18.6581C31.7244 17.9081 31.9744 17.1581 32.1619 16.5956C32.2556 16.3144 32.3337 16.08 32.3884 15.9159C32.4158 15.8339 32.4372 15.7694 32.4519 15.7255C32.4592 15.7035 32.4648 15.6867 32.4686 15.6753C32.4705 15.6696 32.4719 15.6653 32.4729 15.6625C32.4734 15.661 32.4738 15.6599 32.474 15.6592C32.4741 15.6588 32.4742 15.6586 32.4743 15.6584C32.4743 15.6583 32.4743 15.6582 32.4743 15.6582C32.4743 15.6582 32.4743 15.6581 32.4744 15.6581C32.4744 15.6581 32.4744 15.6581 32 15.5ZM30.5257 18.3419C30.2433 19.189 30.2498 20.1453 30.3146 20.8578C30.3475 21.22 30.3968 21.5325 30.438 21.7551C30.4587 21.8666 30.4774 21.9561 30.4912 22.0187C30.4981 22.05 30.5038 22.0746 30.5078 22.0919C30.5099 22.1006 30.5115 22.1074 30.5127 22.1123C30.5133 22.1147 30.5138 22.1167 30.5142 22.1182C30.5144 22.119 30.5145 22.1196 30.5146 22.1201C30.5147 22.1204 30.5148 22.1206 30.5148 22.1208C30.5148 22.1209 30.5149 22.121 30.5149 22.121C30.5149 22.1212 30.5149 22.1213 31 22C31.4851 21.8787 31.4851 21.8788 31.4851 21.8789C31.4851 21.8789 31.4851 21.879 31.4851 21.879C31.4852 21.8791 31.4852 21.8791 31.4852 21.8792C31.4852 21.8792 31.4852 21.8791 31.4851 21.8789C31.485 21.8784 31.4848 21.8775 31.4844 21.8761C31.4838 21.8734 31.4827 21.8688 31.4812 21.8624C31.4782 21.8497 31.4736 21.8299 31.4678 21.8035C31.4562 21.7509 31.4397 21.6724 31.4213 21.573C31.3844 21.3738 31.34 21.0925 31.3105 20.7672C31.2502 20.1047 31.2567 19.311 31.4744 18.6581L30.5257 18.3419Z" fill="#4A6C11"/>
<circle cx="24.9961" cy="24.8818" r="7.26613" fill="url(#paint2_radial_61_1042)"/>
<path d="M23.2 20L22 19.5L22.6 20.5L22 21.5L23.2 21L23.8 22V21H25L23.8 20.5L24.4 19L23.2 20Z" fill="url(#paint3_linear_61_1042)"/>
<path d="M27.7905 26.9349C31.2639 15.2818 39.079 16.2014 43.9996 16.8148C43.7101 23.5612 41.4524 29.8788 27.7905 26.9349Z" fill="url(#paint4_linear_61_1042)"/>
<path d="M35.9169 23.0536C36.4731 23.7556 36.798 24.5013 36.8924 25.1218C36.9892 25.7584 36.8359 26.153 36.6044 26.3365C36.3729 26.52 35.9537 26.579 35.356 26.3392C34.7735 26.1055 34.1218 25.6187 33.5656 24.9168C33.0094 24.2148 32.6845 23.4691 32.5901 22.8486C32.4933 22.212 32.6465 21.8174 32.8781 21.6339C33.1096 21.4504 33.5288 21.3914 34.1264 21.6312C34.7089 21.8649 35.3607 22.3517 35.9169 23.0536Z" stroke="#C73AC1"/>
<path d="M38.9169 21.0536C39.4731 21.7556 39.798 22.5013 39.8924 23.1218C39.9892 23.7584 39.8359 24.153 39.6044 24.3365C39.3729 24.52 38.9537 24.579 38.356 24.3392C37.7735 24.1055 37.1218 23.6187 36.5656 22.9168C36.0094 22.2148 35.6845 21.4691 35.5901 20.8486C35.4933 20.212 35.6465 19.8174 35.8781 19.6339C36.1096 19.4504 36.5288 19.3914 37.1264 19.6312C37.7089 19.8649 38.3607 20.3517 38.9169 21.0536Z" stroke="#C73AC1"/>
<path d="M12.8111 17.7497L9.70858 19.548C8.6296 20.1734 8.37989 21.623 9.18743 22.5734L17.4912 32.346C18.1272 33.0944 19.2124 33.2703 20.0523 32.7611L21.9698 31.5985C22.9512 31.0035 23.2316 29.7065 22.5837 28.7592L15.4649 18.351C14.8739 17.487 13.7167 17.2248 12.8111 17.7497Z" fill="url(#paint5_linear_61_1042)"/>
<path d="M15.0642 21.8498C15.3081 21.7203 15.4008 21.4176 15.2713 21.1737C15.1418 20.9298 14.8391 20.8371 14.5953 20.9666L15.0642 21.8498ZM10.6481 24.1945L15.0642 21.8498L14.5953 20.9666L10.1791 23.3113L10.6481 24.1945Z" fill="#D34334"/>
<path d="M16.8855 23.1472C17.1294 23.0177 17.2221 22.715 17.0926 22.4711C16.9631 22.2272 16.6604 22.1344 16.4165 22.2639L16.8855 23.1472ZM12.4694 25.4919L16.8855 23.1472L16.4165 22.2639L12.0004 24.6087L12.4694 25.4919Z" fill="#D34334"/>
<mask id="mask0_61_1042" style="mask-type:alpha" maskUnits="userSpaceOnUse" x="8" y="23" width="36" height="19">
<path d="M8.12908 26.1678C7.63014 24.7164 8.70857 23.2053 10.2434 23.2053H41.6079C43.0895 23.2053 44.1613 24.6202 43.7602 26.0464L41.4777 34.1619C40.3251 38.2599 36.5877 41.0912 32.3307 41.0912H20.0403C15.9831 41.0912 12.3734 38.515 11.0545 34.6782L8.12908 26.1678Z" fill="#CBBEAB"/>
</mask>
<g mask="url(#mask0_61_1042)">
<path d="M8.12908 26.1678C7.63014 24.7164 8.70857 23.2053 10.2434 23.2053H41.6079C43.0895 23.2053 44.1613 24.6202 43.7602 26.0464L41.4777 34.1619C40.3251 38.2599 36.5877 41.0912 32.3307 41.0912H20.0403C15.9831 41.0912 12.3734 38.515 11.0545 34.6782L8.12908 26.1678Z" fill="url(#paint6_linear_61_1042)"/>
<rect x="8.229" y="28.7947" width="35.2128" height="4.47146" fill="#978974" fill-opacity="0.3"/>
</g>
<defs>
<linearGradient id="paint0_linear_61_1042" x1="19.4065" y1="12.0266" x2="19.4065" y2="23.7642" gradientUnits="userSpaceOnUse">
<stop stop-color="#48C633"/>
<stop offset="1" stop-color="#20970D"/>
</linearGradient>
<linearGradient id="paint1_linear_61_1042" x1="32.263" y1="10.9087" x2="32.263" y2="22.6463" gradientUnits="userSpaceOnUse">
<stop stop-color="#8BC729"/>
<stop offset="1" stop-color="#3D6102"/>
</linearGradient>
<radialGradient id="paint2_radial_61_1042" cx="0" cy="0" r="1" gradientUnits="userSpaceOnUse" gradientTransform="translate(23.0398 20.9693) rotate(52.4314) scale(9.16718)">
<stop stop-color="#FFAF37"/>
<stop offset="1" stop-color="#EA7521"/>
</radialGradient>
<linearGradient id="paint3_linear_61_1042" x1="23.5" y1="19" x2="23.5" y2="22" gradientUnits="userSpaceOnUse">
<stop stop-color="#559D5C"/>
<stop offset="1" stop-color="#99BE30"/>
</linearGradient>
<linearGradient id="paint4_linear_61_1042" x1="35.0567" y1="17.8956" x2="40.9254" y2="24.6028" gradientUnits="userSpaceOnUse">
<stop stop-color="#9C2F98"/>
<stop offset="1" stop-color="#631A60"/>
</linearGradient>
<linearGradient id="paint5_linear_61_1042" x1="9.06662" y1="22.367" x2="15.7738" y2="19.0134" gradientUnits="userSpaceOnUse">
<stop stop-color="#FB6F33"/>
<stop offset="1" stop-color="#FB3F33"/>
</linearGradient>
<linearGradient id="paint6_linear_61_1042" x1="9.5" y1="35" x2="41" y2="35.5" gradientUnits="userSpaceOnUse">
<stop stop-color="#D7CAB7"/>
<stop offset="0.369792" stop-color="#E7D9C6"/>
<stop offset="1" stop-color="#B6AA97"/>
</linearGradient>
</defs>
</svg>
