<svg width="24" height="24" viewBox="0 0 24 24" fill="none" xmlns="http://www.w3.org/2000/svg">
<path d="M12 0L14.4985 1.86337L17.5767 1.37453L18.923 4.18555L21.8758 5.18322L21.7616 8.29792L23.9125 10.5536L22.3639 13.2584L23.2202 16.2553L20.592 17.9306L19.9575 20.9821L16.8517 21.2442L14.8718 23.6513L12 22.44L9.12821 23.6513L7.14829 21.2442L4.04253 20.9821L3.40805 17.9306L0.779805 16.2553L1.63612 13.2584L0.0874939 10.5536L2.23843 8.29792L2.12419 5.18322L5.077 4.18555L6.42332 1.37453L9.50154 1.86337L12 0Z" fill="#84D0A2"/>
<mask id="mask0_265_1903" style="mask-type:alpha" maskUnits="userSpaceOnUse" x="3" y="3" width="18" height="18">
<path d="M12 3L13.8738 4.39753L16.1825 4.0309L17.1923 6.13916L19.4069 6.88742L19.3212 9.22344L20.9344 10.9152L19.7729 12.9438L20.4151 15.1914L18.444 16.4479L17.9681 18.7366L15.6388 18.9331L14.1538 20.7385L12 19.83L9.84616 20.7385L8.36122 18.9331L6.0319 18.7366L5.55604 16.4479L3.58485 15.1914L4.22709 12.9438L3.06562 10.9152L4.67882 9.22344L4.59315 6.88742L6.80775 6.13916L7.81749 4.0309L10.1262 4.39753L12 3Z" fill="#686666"/>
</mask>
<g mask="url(#mask0_265_1903)">
<path fill-rule="evenodd" clip-rule="evenodd" d="M19.3058 17.9193C19.5286 17.9721 19.7611 18 20 18C21.6569 18 23 16.6569 23 15C23 14.7611 22.9721 14.5286 22.9193 14.3058C23.5797 13.7555 24 12.9268 24 12C24 10.3431 22.6569 9 21 9C20.2316 9 19.5308 9.28885 19 9.7639C18.4692 9.28885 17.7684 9 17 9C15.42 9 14.1253 10.2214 14.0086 11.7716C13.4768 11.292 12.7725 11 12 11C10.3431 11 9 12.3431 9 14C9 14.8003 9.31334 15.5273 9.82402 16.0652C8.2145 16.3802 7 17.7983 7 19.5C7 21.433 8.567 23 10.5 23C11.6831 23 12.7292 22.4129 13.3627 21.5142C13.8335 21.8214 14.3959 22 15 22C16.6569 22 18 20.6569 18 19C18 18.9433 17.9984 18.8869 17.9953 18.8309C18.5113 18.6495 18.9627 18.3311 19.3058 17.9193ZM12.8924 16.865C12.8704 16.8719 12.8484 16.8785 12.8262 16.8848L12.8508 16.9069C12.8645 16.8928 12.8784 16.8789 12.8924 16.865Z" fill="#DCF2E5"/>
<circle cx="12" cy="14" r="1" fill="#84D0A2"/>
<circle cx="15" cy="14" r="1" fill="#84D0A2"/>
<circle cx="17" cy="11" r="1" fill="#84D0A2"/>
<circle cx="14" cy="17" r="1" fill="#84D0A2"/>
<circle cx="17" cy="17" r="1" fill="#84D0A2"/>
<circle cx="18" cy="14" r="1" fill="#84D0A2"/>
<circle cx="11" cy="18" r="1" fill="#84D0A2"/>
</g>
</svg>
