<svg width="44" height="44" viewBox="0 0 44 44" fill="none" xmlns="http://www.w3.org/2000/svg">
<g clip-path="url(#clip0_502_7295)" filter="url(#filter0_b_502_7295)">
<g clip-path="url(#clip1_502_7295)">
<rect y="6" width="32" height="32" rx="5" fill="url(#paint0_linear_502_7295)"/>
<mask id="mask0_502_7295" style="mask-type:alpha" maskUnits="userSpaceOnUse" x="6" y="10" width="20" height="10">
<path d="M25.9417 12.8657C22.9285 11.126 19.5105 10.2102 16.0312 10.2102C12.5519 10.2102 9.13383 11.126 6.12066 12.8657L9.66258 19.0005C11.5989 17.8826 13.7953 17.294 16.0312 17.294C18.267 17.294 20.4635 17.8826 22.3998 19.0005L25.9417 12.8657Z" fill="white"/>
</mask>
<g mask="url(#mask0_502_7295)">
<path d="M25.4417 13.7317C25.7178 13.2534 25.555 12.6394 25.0634 12.3877C22.272 10.9587 19.1766 10.2102 16.0312 10.2102C12.8857 10.2102 9.79036 10.9587 6.99894 12.3877C6.50733 12.6394 6.34451 13.2534 6.62066 13.7317L9.16258 18.1344C9.43873 18.6127 10.0489 18.7727 10.5474 18.535C12.2562 17.7198 14.1295 17.294 16.0312 17.294C17.9329 17.294 19.8061 17.7198 21.515 18.535C22.0135 18.7727 22.6236 18.6127 22.8998 18.1345L25.4417 13.7317Z" fill="white"/>
<path fill-rule="evenodd" clip-rule="evenodd" d="M10.8297 12.6933C10.7388 12.3915 11.0324 12.2637 11.1914 12.5358L14.6284 18.418L12.7947 19.2165L10.8297 12.6933Z" fill="black"/>
</g>
</g>
<g filter="url(#filter1_b_502_7295)">
<rect x="18" width="26" height="14" rx="4" fill="#F96C51"/>
<path d="M22.8691 5.37402V6.52637H19.6465V5.37402H22.8691Z" fill="white"/>
<path d="M26.5582 9.58301C25.0836 9.58301 24.0045 8.71387 23.9801 7.49316H25.4059C25.44 8.04492 25.943 8.42578 26.5582 8.4209C27.2906 8.42578 27.8131 7.9082 27.8082 7.1709C27.8131 6.41895 27.2809 5.89648 26.5387 5.8916C26.0064 5.8916 25.6354 6.0918 25.4254 6.4873H24.0973L24.4781 2.41504H28.8336V3.61621H25.6891L25.4938 5.40332H25.5523C25.8111 5.05664 26.3482 4.80273 26.9684 4.80762C28.2672 4.80273 29.234 5.77441 29.234 7.13184C29.234 8.5625 28.15 9.58301 26.5582 9.58301Z" fill="white"/>
<path d="M30.1398 9.48535V2.41504H31.5852V6.21387H31.6633L33.382 4.18262H35.0422L33.0646 6.47754L35.1496 9.48535H33.4504L31.9904 7.32715L31.5852 7.78613V9.48535H30.1398Z" fill="white"/>
<path d="M37.7742 11.585C36.3094 11.585 35.4061 10.9258 35.323 9.9248H36.7488C36.827 10.3496 37.2273 10.54 37.8035 10.54C38.4725 10.54 38.9217 10.252 38.9266 9.51465V8.54785H38.8582C38.6678 8.97754 38.199 9.41211 37.3445 9.40723C36.1482 9.41211 35.1863 8.56738 35.1863 6.7998C35.1863 5.00781 36.1727 4.11426 37.3445 4.11426C38.2332 4.11426 38.6629 4.6416 38.8582 5.07129H38.9168V4.18262H40.3523V9.54395C40.3475 10.8965 39.283 11.585 37.7742 11.585ZM36.6707 6.81934C36.6658 7.7373 37.0613 8.31836 37.7938 8.32324C38.5164 8.31836 38.9266 7.76172 38.9266 6.81934C38.9266 5.87695 38.5213 5.2666 37.7938 5.2666C37.0564 5.2666 36.6658 5.90625 36.6707 6.81934Z" fill="white"/>
</g>
<path d="M40.0308 15.1924C40.2888 14.7454 40.8604 14.5923 41.3074 14.8503V14.8503C41.7544 15.1084 41.9075 15.6799 41.6494 16.1269L39.7804 19.3643C39.5223 19.8113 38.9507 19.9644 38.5038 19.7063V19.7063C38.0568 19.4483 37.9036 18.8767 38.1617 18.4297L40.0308 15.1924Z" fill="#2FC93E"/>
<path d="M41.6516 17.0613C42.0986 16.8032 42.6701 16.9563 42.9282 17.4033V17.4033C43.1863 17.8503 43.0331 18.4219 42.5861 18.6799L39.3488 20.549C38.9018 20.8071 38.3303 20.6539 38.0722 20.207V20.207C37.8141 19.76 37.9673 19.1884 38.4143 18.9303L41.6516 17.0613Z" fill="#2FC93E"/>
<path d="M38.2656 16.3093C38.2656 15.7774 37.8344 15.3462 37.3026 15.3462V15.3462C36.7707 15.3462 36.3395 15.7774 36.3395 16.3093V20.1615C36.3395 20.6934 36.7707 21.1246 37.3026 21.1246V21.1246C37.8344 21.1246 38.2656 20.6934 38.2656 20.1615V16.3093Z" fill="#2FC93E"/>
<path d="M33.5048 18.337C33.7373 17.9344 34.361 17.8592 34.898 18.1692L40.7312 21.537C41.2681 21.847 41.5149 22.4248 41.2824 22.8274L40.0195 25.0149C39.787 25.4175 39.1633 25.4927 38.6263 25.1827L32.7931 21.8149C32.2562 21.5049 32.0094 20.9271 32.2419 20.5245L33.5048 18.337Z" fill="#C25111"/>
<mask id="mask1_502_7295" style="mask-type:alpha" maskUnits="userSpaceOnUse" x="22" y="18" width="21" height="26">
<path d="M29.359 20.1919C29.8731 18.9275 31.3857 18.4086 32.5677 19.0911L41.1176 24.0273C42.2878 24.703 42.6026 26.2505 41.7893 27.3296L30.4207 42.4131C29.7367 43.3205 28.4834 43.5754 27.4993 43.0073L23.1891 40.5188C22.2162 39.9571 21.8069 38.7638 22.23 37.7231L29.359 20.1919Z" fill="#F96C51"/>
</mask>
<g mask="url(#mask1_502_7295)">
<path d="M29.359 20.1919C29.8731 18.9275 31.3857 18.4086 32.5677 19.0911L41.1176 24.0273C42.2878 24.703 42.6026 26.2505 41.7893 27.3296L30.4207 42.4131C29.7367 43.3205 28.4834 43.5754 27.4993 43.0073L23.1891 40.5188C22.2162 39.9571 21.8069 38.7638 22.23 37.7231L29.359 20.1919Z" fill="url(#paint1_linear_502_7295)"/>
<rect x="27.7695" y="22.3787" width="8.93104" height="1.4" transform="rotate(30 27.7695 22.3787)" fill="#C25111"/>
<rect x="31.0293" y="28.593" width="8.24866" height="1.4" transform="rotate(30 31.0293 28.593)" fill="#C25111"/>
<rect x="24.5098" y="30.8901" width="8.24866" height="1.4" transform="rotate(30 24.5098 30.8901)" fill="#C25111"/>
<rect x="25.8789" y="36.0112" width="8.24866" height="1.4" transform="rotate(30 25.8789 36.0112)" fill="#C25111"/>
</g>
</g>
<defs>
<filter id="filter0_b_502_7295" x="-1" y="-1" width="46" height="46" filterUnits="userSpaceOnUse" color-interpolation-filters="sRGB">
<feFlood flood-opacity="0" result="BackgroundImageFix"/>
<feGaussianBlur in="BackgroundImageFix" stdDeviation="0.5"/>
<feComposite in2="SourceAlpha" operator="in" result="effect1_backgroundBlur_502_7295"/>
<feBlend mode="normal" in="SourceGraphic" in2="effect1_backgroundBlur_502_7295" result="shape"/>
</filter>
<filter id="filter1_b_502_7295" x="17" y="-1" width="28" height="16" filterUnits="userSpaceOnUse" color-interpolation-filters="sRGB">
<feFlood flood-opacity="0" result="BackgroundImageFix"/>
<feGaussianBlur in="BackgroundImageFix" stdDeviation="0.5"/>
<feComposite in2="SourceAlpha" operator="in" result="effect1_backgroundBlur_502_7295"/>
<feBlend mode="normal" in="SourceGraphic" in2="effect1_backgroundBlur_502_7295" result="shape"/>
</filter>
<linearGradient id="paint0_linear_502_7295" x1="16" y1="6" x2="16" y2="38" gradientUnits="userSpaceOnUse">
<stop stop-color="#D4E2E2"/>
<stop offset="1" stop-color="#B8C2C2"/>
</linearGradient>
<linearGradient id="paint1_linear_502_7295" x1="36.8426" y1="21.5592" x2="25.2195" y2="41.691" gradientUnits="userSpaceOnUse">
<stop stop-color="#FF6F1E"/>
<stop offset="1" stop-color="#FF6543"/>
</linearGradient>
<clipPath id="clip0_502_7295">
<rect width="44" height="44" fill="white"/>
</clipPath>
<clipPath id="clip1_502_7295">
<rect y="6" width="32" height="32" rx="5" fill="white"/>
</clipPath>
</defs>
</svg>
