<svg width="44" height="44" viewBox="0 0 44 44" fill="none" xmlns="http://www.w3.org/2000/svg">
<path fill-rule="evenodd" clip-rule="evenodd" d="M16.6168 15.1954C16.4015 15.2613 16.1789 15.3105 15.9504 15.3413C15.6713 17.7348 13.6367 19.5924 11.1683 19.5924C8.50916 19.5924 6.35352 17.4367 6.35352 14.7776C6.35352 12.1185 8.50916 9.96285 11.1683 9.96285C11.2264 9.96285 11.2842 9.96388 11.3418 9.96592C11.8588 8.22411 13.4716 6.95361 15.3812 6.95361C16.8919 6.95361 18.2168 7.74871 18.9604 8.94325C19.3511 8.82356 19.766 8.75915 20.196 8.75915C22.5227 8.75915 24.4089 10.6453 24.4089 12.9721C24.4089 15.2988 22.5227 17.185 20.196 17.185C18.6853 17.185 17.3604 16.3899 16.6168 15.1954Z" fill="url(#paint0_linear_502_7316)"/>
<circle cx="6.35437" cy="14.1759" r="1.80554" fill="#DA5218"/>
<path d="M16.4687 9.93191C16.3452 9.68492 16.0449 9.58481 15.7979 9.7083C15.5509 9.8318 15.4508 10.1321 15.5743 10.3791L16.4687 9.93191ZM15.5743 10.3791C15.9605 11.1516 16.1338 12.1493 16.1816 13.1145C16.2291 14.0733 16.1508 14.9527 16.0667 15.4572L17.0531 15.6216C17.1485 15.0493 17.2316 14.0982 17.1804 13.065C17.1295 12.0382 16.9439 10.8823 16.4687 9.93191L15.5743 10.3791Z" fill="#2D951D"/>
<path d="M11.8438 11.8646C11.5982 11.7384 11.2968 11.8351 11.1705 12.0807C11.0443 12.3263 11.1411 12.6278 11.3867 12.754L11.8438 11.8646ZM11.3867 12.754C12.2455 13.1955 13.1504 14.2867 13.8452 15.4059C14.1852 15.9535 14.459 16.4822 14.6384 16.8986C14.7285 17.1077 14.7909 17.2796 14.8265 17.4061C14.8444 17.4697 14.8531 17.513 14.8565 17.5385C14.8611 17.573 14.8525 17.5478 14.8653 17.4931L15.839 17.7209C15.8671 17.6007 15.8582 17.4847 15.8477 17.4061C15.836 17.3185 15.8148 17.2263 15.789 17.1349C15.7373 16.9515 15.6571 16.7358 15.5568 16.503C15.3555 16.0356 15.0577 15.4629 14.6948 14.8784C13.9841 13.7335 12.9593 12.438 11.8438 11.8646L11.3867 12.754Z" fill="#2D951D"/>
<path fill-rule="evenodd" clip-rule="evenodd" d="M25.6451 7.73963C26.3887 6.5451 27.7136 5.75 29.2243 5.75C31.1338 5.75 32.7467 7.02049 33.2636 8.7623C33.3212 8.76026 33.3791 8.75923 33.4372 8.75923C36.0963 8.75923 38.252 10.9149 38.252 13.574C38.252 16.2331 36.0963 18.3888 33.4372 18.3888H23.8076V15.9387C21.766 15.6467 20.1966 13.8909 20.1966 11.7685C20.1966 9.44173 22.0828 7.55554 24.4095 7.55554C24.8394 7.55554 25.2543 7.61995 25.6451 7.73963Z" fill="url(#paint1_linear_502_7316)"/>
<path d="M29.4154 10.8522C29.5027 10.5902 29.3611 10.3071 29.0991 10.2198C28.8372 10.1324 28.554 10.274 28.4667 10.536L29.4154 10.8522ZM28.941 10.6941C28.4667 10.536 28.4667 10.536 28.4667 10.536C28.4667 10.536 28.4667 10.536 28.4667 10.5361C28.4666 10.5361 28.4666 10.5362 28.4666 10.5363C28.4665 10.5365 28.4664 10.5368 28.4663 10.5372C28.466 10.5379 28.4656 10.5391 28.4651 10.5407C28.4641 10.5438 28.4625 10.5484 28.4605 10.5545C28.4564 10.5667 28.4504 10.5849 28.4425 10.6085C28.4267 10.6559 28.4036 10.7253 28.3741 10.8136C28.3153 10.9902 28.2311 11.2426 28.1302 11.5455C27.9283 12.1511 27.6591 12.9587 27.3899 13.7663L28.3386 14.0825C28.6078 13.275 28.877 12.4674 29.0789 11.8617C29.1798 11.5588 29.2639 11.3065 29.3228 11.1298C29.3523 11.0415 29.3754 10.9721 29.3912 10.9248C29.3991 10.9011 29.4051 10.883 29.4092 10.8707C29.4112 10.8646 29.4128 10.86 29.4138 10.8569C29.4143 10.8553 29.4147 10.8542 29.415 10.8534C29.4151 10.853 29.4152 10.8527 29.4153 10.8525C29.4153 10.8524 29.4153 10.8523 29.4153 10.8523C29.4153 10.8523 29.4154 10.8522 29.4154 10.8522C29.4154 10.8522 29.4154 10.8522 28.941 10.6941ZM27.3899 13.7663C27.0883 14.671 27.0948 15.6945 27.1644 16.4597C27.1997 16.8484 27.2527 17.1836 27.2969 17.4225C27.319 17.5421 27.3391 17.638 27.3539 17.705C27.3612 17.7386 27.3673 17.7649 27.3717 17.7833C27.3738 17.7925 27.3756 17.7998 27.3768 17.805C27.3775 17.8076 27.378 17.8097 27.3784 17.8113C27.3786 17.8121 27.3787 17.8127 27.3789 17.8132C27.3789 17.8135 27.379 17.8137 27.379 17.8139C27.3791 17.814 27.3791 17.8141 27.3791 17.8142C27.3791 17.8143 27.3792 17.8144 27.8642 17.6931C28.3493 17.5719 28.3493 17.572 28.3493 17.5721C28.3493 17.5721 28.3494 17.5721 28.3494 17.5722C28.3494 17.5722 28.3494 17.5723 28.3494 17.5723C28.3494 17.5723 28.3494 17.5721 28.3493 17.5719C28.3492 17.5714 28.3489 17.5704 28.3486 17.5688C28.3478 17.5658 28.3466 17.5608 28.345 17.5538C28.3417 17.5399 28.3367 17.5184 28.3304 17.4899C28.3179 17.4328 28.3001 17.3479 28.2802 17.2404C28.2403 17.0249 28.1923 16.7209 28.1603 16.3692C28.0953 15.6539 28.1018 14.793 28.3386 14.0825L27.3899 13.7663Z" fill="#4A6C11"/>
<circle cx="21.4002" cy="20.7962" r="7.824" fill="url(#paint2_radial_502_7316)"/>
<path d="M19.466 15.5392L18.1738 15.0008L18.8199 16.0776L18.1738 17.1543L19.466 16.616L20.112 17.6927V16.616H21.4042L20.112 16.0776L20.7581 14.4624L19.466 15.5392Z" fill="url(#paint3_linear_502_7316)"/>
<path d="M24.4062 23.0067C28.1463 10.4589 36.5614 11.4492 41.8598 12.1096C41.5481 19.374 39.1171 26.1766 24.4062 23.0067Z" fill="url(#paint4_linear_502_7316)"/>
<path d="M33.1897 18.8032C33.792 19.5633 34.1451 20.3724 34.248 21.0483C34.3532 21.7403 34.1885 22.1823 33.9238 22.3921C33.659 22.6019 33.1911 22.6612 32.5414 22.4005C31.9069 22.1459 31.2 21.6172 30.5977 20.8571C29.9954 20.097 29.6423 19.288 29.5395 18.6121C29.4342 17.9201 29.5989 17.4781 29.8636 17.2683C30.1284 17.0585 30.5964 16.9992 31.246 17.2598C31.8805 17.5144 32.5874 18.0431 33.1897 18.8032Z" stroke="#C73AC1"/>
<path d="M36.4202 16.6501C37.0225 17.4103 37.3756 18.2193 37.4784 18.8952C37.5837 19.5872 37.419 20.0292 37.1542 20.239C36.8895 20.4488 36.4215 20.5081 35.7719 20.2474C35.1374 19.9929 34.4305 19.4642 33.8282 18.7041C33.2259 17.944 32.8727 17.1349 32.7699 16.459C32.6647 15.767 32.8293 15.325 33.0941 15.1152C33.3589 14.9054 33.8268 14.8461 34.4765 15.1068C35.111 15.3613 35.8179 15.89 36.4202 16.6501Z" stroke="#C73AC1"/>
<path d="M8.40238 13.045L4.77929 15.145C3.70031 15.7704 3.4506 17.22 4.25814 18.1704L13.4033 28.9331C14.0392 29.6815 15.1245 29.8575 15.9643 29.3483L18.2797 27.9444C19.261 27.3494 19.5415 26.0524 18.8936 25.1051L11.0561 13.6463C10.4652 12.7823 9.30801 12.5201 8.40238 13.045Z" fill="url(#paint5_linear_502_7316)"/>
<path d="M10.685 17.4977C10.9289 17.3682 11.0216 17.0655 10.8921 16.8216C10.7626 16.5777 10.4599 16.4849 10.216 16.6144L10.685 17.4977ZM5.9298 20.0224L10.685 17.4977L10.216 16.6144L5.46085 19.1392L5.9298 20.0224Z" fill="#D34334"/>
<path d="M12.6479 18.8944C12.8918 18.7649 12.9845 18.4622 12.855 18.2183C12.7255 17.9744 12.4228 17.8817 12.1789 18.0112L12.6479 18.8944ZM7.89269 21.4192L12.6479 18.8944L12.1789 18.0112L7.42374 20.5359L7.89269 21.4192Z" fill="#D34334"/>
<mask id="mask0_502_7316" style="mask-type:alpha" maskUnits="userSpaceOnUse" x="3" y="18" width="39" height="21">
<path d="M3.2362 22.1809C2.69895 20.618 3.86017 18.991 5.51283 18.991H39.2855C40.8808 18.991 42.0349 20.5144 41.603 22.0501L39.1452 30.7888C37.9042 35.2014 33.8798 38.25 29.296 38.25H16.0619C11.6932 38.25 7.80642 35.4761 6.38623 31.3447L3.2362 22.1809Z" fill="#CBBEAB"/>
</mask>
<g mask="url(#mask0_502_7316)">
<path d="M3.2362 22.1809C2.69895 20.618 3.86017 18.991 5.51283 18.991H39.2855C40.8808 18.991 42.0349 20.5144 41.603 22.0501L39.1452 30.7888C37.9042 35.2014 33.8798 38.25 29.296 38.25H16.0619C11.6932 38.25 7.80642 35.4761 6.38623 31.3447L3.2362 22.1809Z" fill="url(#paint6_linear_502_7316)"/>
<rect x="3.34375" y="25.0093" width="37.9163" height="4.81477" fill="#978974" fill-opacity="0.3"/>
</g>
<defs>
<linearGradient id="paint0_linear_502_7316" x1="15.3812" y1="6.95361" x2="15.3812" y2="19.5924" gradientUnits="userSpaceOnUse">
<stop stop-color="#48C633"/>
<stop offset="1" stop-color="#20970D"/>
</linearGradient>
<linearGradient id="paint1_linear_502_7316" x1="29.2243" y1="5.75" x2="29.2243" y2="18.3888" gradientUnits="userSpaceOnUse">
<stop stop-color="#8BC729"/>
<stop offset="1" stop-color="#3D6102"/>
</linearGradient>
<radialGradient id="paint2_radial_502_7316" cx="0" cy="0" r="1" gradientUnits="userSpaceOnUse" gradientTransform="translate(19.2937 16.5832) rotate(52.4314) scale(9.87101)">
<stop stop-color="#FFAF37"/>
<stop offset="1" stop-color="#EA7521"/>
</radialGradient>
<linearGradient id="paint3_linear_502_7316" x1="19.789" y1="14.4624" x2="19.789" y2="17.6927" gradientUnits="userSpaceOnUse">
<stop stop-color="#559D5C"/>
<stop offset="1" stop-color="#99BE30"/>
</linearGradient>
<linearGradient id="paint4_linear_502_7316" x1="32.2303" y1="13.2734" x2="38.5496" y2="20.4956" gradientUnits="userSpaceOnUse">
<stop stop-color="#9C2F98"/>
<stop offset="1" stop-color="#631A60"/>
</linearGradient>
<linearGradient id="paint5_linear_502_7316" x1="4.24709" y1="18.0882" x2="11.4692" y2="14.4771" gradientUnits="userSpaceOnUse">
<stop stop-color="#FB6F33"/>
<stop offset="1" stop-color="#FB3F33"/>
</linearGradient>
<linearGradient id="paint6_linear_502_7316" x1="4.71237" y1="31.6912" x2="38.6309" y2="32.2296" gradientUnits="userSpaceOnUse">
<stop stop-color="#D7CAB7"/>
<stop offset="0.369792" stop-color="#E7D9C6"/>
<stop offset="1" stop-color="#B6AA97"/>
</linearGradient>
</defs>
</svg>
