<svg width="62" height="62" viewBox="0 0 62 62" fill="none" xmlns="http://www.w3.org/2000/svg">
<path d="M16.6836 29.2896L19.8152 22.5791L22.9468 29.2896" stroke="black" stroke-width="1.4" stroke-linecap="round" stroke-linejoin="round"/>
<path d="M25.6316 29.737C25.6316 30.1483 25.4811 30.5555 25.1889 30.9355C24.8966 31.3154 24.4682 31.6606 23.9282 31.9514C23.3881 32.2422 22.747 32.4729 22.0414 32.6302C21.3358 32.7876 20.5795 32.8686 19.8158 32.8686C19.052 32.8686 18.2958 32.7876 17.5902 32.6302C16.8846 32.4729 16.2435 32.2422 15.7034 31.9514C15.1634 31.6606 14.735 31.3154 14.4427 30.9355C14.1504 30.5555 14 30.1483 14 29.737L19.8158 29.737H25.6316Z" stroke="black" stroke-width="1.4"/>
<path d="M39.0508 29.2896L42.1824 22.5791L45.3139 29.2896" stroke="black" stroke-width="1.4" stroke-linecap="round" stroke-linejoin="round"/>
<path d="M47.9988 29.737C47.9988 30.1483 47.8483 30.5555 47.5561 30.9355C47.2638 31.3154 46.8354 31.6606 46.2954 31.9514C45.7553 32.2422 45.1142 32.4729 44.4086 32.6302C43.703 32.7876 42.9467 32.8686 42.183 32.8686C41.4192 32.8686 40.663 32.7876 39.9574 32.6302C39.2518 32.4729 38.6106 32.2422 38.0706 31.9514C37.5305 31.6606 37.1022 31.3154 36.8099 30.9355C36.5176 30.5555 36.3672 30.1483 36.3672 29.737L42.183 29.737H47.9988Z" stroke="black" stroke-width="1.4"/>
<circle cx="31.448" cy="22.1316" r="2.43158" stroke="black" stroke-width="1.4"/>
<path d="M31.4466 25.2632V41.8158M37.2624 41.8158H25.6309" stroke="black" stroke-width="1.4" stroke-linecap="round" stroke-linejoin="round"/>
<path d="M38.6052 44.9473H22.9473" stroke="black" stroke-width="1.4" stroke-linecap="round" stroke-linejoin="round"/>
<path d="M20 22.5H42" stroke="black" stroke-width="1.4" stroke-linecap="round" stroke-linejoin="round"/>
</svg>
