<svg width="58" height="58" viewBox="0 0 58 58" fill="none" xmlns="http://www.w3.org/2000/svg">
<path d="M46.9714 30.5C46.8594 32.4563 46.4196 34.3823 45.6679 36.197C44.7884 38.3202 43.4994 40.2493 41.8744 41.8744C40.2493 43.4994 38.3202 44.7884 36.197 45.6679C34.0738 46.5474 31.7981 47 29.5 47C27.2019 47 24.9262 46.5473 22.803 45.6679C20.6798 44.7884 18.7507 43.4994 17.1256 41.8744C15.5006 40.2493 14.2116 38.3202 13.3321 36.197C12.5804 34.3823 12.1406 32.4563 12.0286 30.5L46.9714 30.5Z" stroke="#21ACBF" stroke-width="2"/>
<path fill-rule="evenodd" clip-rule="evenodd" d="M33.5446 20.1051C33.4037 19.7498 33.2324 19.4099 33.0338 19.0885C34.4872 17.0679 36.559 15.4263 38.6399 15.288C39.112 16.6113 38.8973 18.6103 38.059 20.469L38.0513 20.4741C37.0894 20.1662 36.0641 20 35 20C34.5057 20 34.0197 20.0359 33.5446 20.1051ZM44.1464 25.951C43.3245 24.0972 41.9555 22.5399 40.2443 21.4838C42.6251 20.1791 45.3498 19.5292 47.4969 20.2717C47.3969 22.0339 46.1029 24.2701 44.1464 25.951ZM47.9712 24.5945C47.1703 25.833 46.0843 27.02 44.7986 27.9935C44.8985 28.4836 44.9624 28.9867 44.9877 29.5H42.9846C42.7265 25.3146 39.2504 22 35 22C34.6026 22 34.213 22.0288 33.8332 22.0842L32.2683 22.3124L31.6854 20.8424C31.0239 19.174 29.3966 18 27.5 18C25.4777 18 23.767 19.334 23.1998 21.17C27.0797 21.9575 30 25.3877 30 29.5H28C28 25.9101 25.0899 23 21.5 23C17.9101 23 15 25.9101 15 29.5H13C13 24.9153 16.6298 21.1783 21.1725 21.0062C21.8474 18.1364 24.4242 16 27.5 16C29.0996 16 30.5642 16.5778 31.6966 17.5361C33.2999 15.4555 35.7192 13.4777 38.5073 13.2924L40.0157 13.1921L40.5237 14.616C40.9582 15.8342 40.9664 17.2386 40.7346 18.5514C40.7043 18.7235 40.6693 18.8966 40.6299 19.0702C42.9958 18.0425 45.7226 17.5419 48.1505 18.3815L49.5792 18.8756L49.4936 20.3849C49.4117 21.8297 48.8061 23.3035 47.9712 24.5945Z" fill="#21ACBF"/>
</svg>
