<svg width="58" height="58" viewBox="0 0 58 58" fill="none" xmlns="http://www.w3.org/2000/svg">
<circle cx="20" cy="29" r="16" stroke="#17B961" stroke-width="2"/>
<circle cx="20" cy="29" r="10" stroke="#17B961" stroke-width="2"/>
<path d="M47.2 29.1333C47.2 30.6316 46.7433 31.9495 46.0527 32.8703C45.3623 33.7907 44.4849 34.2667 43.6 34.2667C42.7151 34.2667 41.8377 33.7907 41.1473 32.8703C40.4567 31.9495 40 30.6316 40 29.1333C40 27.6351 40.4567 26.3172 41.1473 25.3964C41.8377 24.4759 42.7151 24 43.6 24C44.4849 24 45.3623 24.4759 46.0527 25.3964C46.7433 26.3172 47.2 27.6351 47.2 29.1333Z" stroke="#17B961" stroke-width="2"/>
<path d="M43.5996 34.8833V46" stroke="#17B961" stroke-width="2"/>
<path d="M50.5 23L50.5 46" stroke="#17B961" stroke-width="2"/>
<path d="M53.5664 23L53.5664 46" stroke="#17B961" stroke-width="2"/>
</svg>
