<svg width="58" height="58" viewBox="0 0 58 58" fill="none" xmlns="http://www.w3.org/2000/svg">
<g clip-path="url(#clip0_547_1145)">
<mask id="path-2-inside-1_547_1145" fill="white">
<path d="M49.5061 27.4939C46.8132 24.801 43.6163 22.6649 40.0978 21.2075C36.5794 19.7501 32.8083 19 29 19C25.1917 19 21.4206 19.7501 17.9022 21.2075C14.3837 22.6649 11.1868 24.801 8.4939 27.4939L21.507 40.507C22.491 39.523 23.6591 38.7424 24.9448 38.2099C26.2304 37.6773 27.6084 37.4032 29 37.4032C30.3916 37.4032 31.7695 37.6773 33.0552 38.2099C34.3409 38.7424 35.509 39.523 36.493 40.507L49.5061 27.4939Z"/>
</mask>
<path d="M49.5061 27.4939C46.8132 24.801 43.6163 22.6649 40.0978 21.2075C36.5794 19.7501 32.8083 19 29 19C25.1917 19 21.4206 19.7501 17.9022 21.2075C14.3837 22.6649 11.1868 24.801 8.4939 27.4939L21.507 40.507C22.491 39.523 23.6591 38.7424 24.9448 38.2099C26.2304 37.6773 27.6084 37.4032 29 37.4032C30.3916 37.4032 31.7695 37.6773 33.0552 38.2099C34.3409 38.7424 35.509 39.523 36.493 40.507L49.5061 27.4939Z" stroke="#C6AA64" stroke-width="4" mask="url(#path-2-inside-1_547_1145)"/>
<mask id="path-3-inside-2_547_1145" fill="white">
<path d="M5.66547 24.6655C10.0258 20.3052 15.5205 17.2538 21.5267 15.8574C27.5329 14.4609 33.8102 14.7752 39.6468 16.7647L39.0352 18.559C33.5338 16.6839 27.6171 16.3876 21.956 17.7039C16.2949 19.0201 11.1158 21.8962 7.00597 26.006L5.66547 24.6655Z"/>
</mask>
<path d="M5.66547 24.6655C10.0258 20.3052 15.5205 17.2538 21.5267 15.8574C27.5329 14.4609 33.8102 14.7752 39.6468 16.7647L39.0352 18.559C33.5338 16.6839 27.6171 16.3876 21.956 17.7039C16.2949 19.0201 11.1158 21.8962 7.00597 26.006L5.66547 24.6655Z" stroke="#C6AA64" stroke-width="4" mask="url(#path-3-inside-2_547_1145)"/>
<path d="M26.5 37.5L23 25.5" stroke="#C6AA64" stroke-width="2"/>
</g>
<defs>
<clipPath id="clip0_547_1145">
<rect width="58" height="58" rx="20" fill="white"/>
</clipPath>
</defs>
</svg>
