<svg width="98" height="29" viewBox="0 0 98 29" fill="none" xmlns="http://www.w3.org/2000/svg">
<path d="M41.9 28.74H27.42V24.16H38.74V23.48H27.4V21.4H41.5V25.98H30.18V26.66H41.9V28.74ZM37.62 20.82H34.94V17.98H33.62C33.42 19.6 32.14 20.46 30.32 20.46H28.26C26.28 20.46 24.94 19.44 24.94 17.56C24.94 15.68 26.28 14.66 28.26 14.66H30.32C31.42 14.66 32.32 14.98 32.9 15.58H34.94V11.24H37.62V20.82ZM41.5 20.82H38.78V11.04H41.5V20.82ZM33.84 14.04H24.64V11.92H27.9V10.54H30.66V11.92H33.84V14.04ZM29.02 18.36H29.56C30.32 18.36 30.92 18.12 30.92 17.56C30.92 17 30.32 16.76 29.56 16.76H29.02C28.26 16.76 27.66 17 27.66 17.56C27.66 18.12 28.26 18.36 29.02 18.36ZM59.7784 20.5L58.0984 22.44C55.6184 20.66 53.7784 19.26 51.5984 17.42C49.4184 19.26 47.5784 20.66 45.0984 22.44L43.4184 20.5C45.3784 19.04 47.5384 17.4 49.1584 15.92C49.8184 15.3 50.1784 14.74 50.1784 13.84V11.38H53.0184V13.82C53.0184 14.72 53.3784 15.3 54.0384 15.92C55.6584 17.4 57.8184 19.04 59.7784 20.5ZM60.2984 27.52H42.8984V25.08H60.2984V27.52ZM74.1169 28.18H71.4369V20.08H68.7969C67.0769 22.34 65.2169 24.44 63.2969 26.6L61.3369 25.02C62.9369 23.16 64.6169 21.32 66.1369 19.32H62.0569V16.88H66.9569V16.72V14.24H62.2569V11.8H69.6769V17.02C69.6769 17.16 69.6769 17.3 69.6569 17.44H71.4369V11.24H74.1169V28.18ZM78.2969 28.68H75.5769V11.04H78.2969V28.68ZM95.9953 28.7H93.2353V19.84H90.7353V21.68C90.7353 24.46 88.7353 26.38 85.6353 26.38C82.5353 26.38 80.5353 24.46 80.5353 21.68V16C80.5353 13.22 82.5353 11.3 85.6353 11.3C88.7353 11.3 90.7353 13.22 90.7353 16V17.2H93.2353V11.04H95.9953V28.7ZM87.9753 21.38V16.3C87.9753 14.72 87.1953 13.74 85.6353 13.74C84.0753 13.74 83.2953 14.72 83.2953 16.3V21.38C83.2953 22.96 84.0753 23.94 85.6353 23.94C87.1953 23.94 87.9753 22.96 87.9753 21.38Z" fill="#FF4B42"/>
<path d="M30.724 5.506H27.322V7.792H25.522V0.565H30.724C31.498 0.565 32.038 1.105 32.038 1.879V4.192C32.038 4.966 31.498 5.506 30.724 5.506ZM30.238 3.886V2.185H27.322V3.886H30.238ZM39.4527 7.792H37.4817L36.9867 6.172H34.4037L33.8637 7.792H31.8927L34.2957 0.565H37.2207L39.4527 7.792ZM36.5367 4.678L36.1497 3.382C36.0237 2.932 35.8617 2.401 35.7717 1.951C35.6637 2.401 35.4927 2.932 35.3487 3.382L34.9077 4.678H36.5367ZM45.1335 7.792H41.1915C40.4175 7.792 39.8775 7.252 39.8775 6.478V5.344H41.6775V6.172H44.6475V4.822H41.1915C40.4175 4.822 39.9675 4.372 39.9675 3.598V1.879C39.9675 1.105 40.5075 0.565 41.2815 0.565H45.0885C45.8625 0.565 46.4025 1.105 46.4025 1.879V2.869H44.6025V2.185H41.7675V3.337H45.2235C45.9975 3.337 46.4475 3.787 46.4475 4.561V6.478C46.4475 7.252 45.9075 7.792 45.1335 7.792ZM52.7469 7.792H48.8049C48.0309 7.792 47.4909 7.252 47.4909 6.478V5.344H49.2909V6.172H52.2609V4.822H48.8049C48.0309 4.822 47.5809 4.372 47.5809 3.598V1.879C47.5809 1.105 48.1209 0.565 48.8949 0.565H52.7019C53.4759 0.565 54.0159 1.105 54.0159 1.879V2.869H52.2159V2.185H49.3809V3.337H52.8369C53.6109 3.337 54.0609 3.787 54.0609 4.561V6.478C54.0609 7.252 53.5209 7.792 52.7469 7.792Z" fill="#FF4B42"/>
<path fill-rule="evenodd" clip-rule="evenodd" d="M22 0H0V26.2035L1.28313 27.5355L4.68875 24L8.09438 27.5355L11.5 24L14.9056 27.5355L18.3112 24L21.7169 27.5355L22 27.2416V0Z" fill="url(#paint0_linear_951_8104)"/>
<rect x="3" y="6" width="13" height="2" rx="1" fill="white"/>
<rect x="3" y="11" width="7" height="2" rx="1" fill="white"/>
<defs>
<linearGradient id="paint0_linear_951_8104" x1="11.0429" y1="-2.19923" x2="11.0429" y2="32.4461" gradientUnits="userSpaceOnUse">
<stop stop-color="#FF6B63"/>
<stop offset="1" stop-color="#FF50A4"/>
</linearGradient>
</defs>
</svg>
