<svg width="98" height="29" viewBox="0 0 98 29" fill="none" xmlns="http://www.w3.org/2000/svg">
<path d="M37.7798 28.66H30.7398C28.4398 28.66 26.7598 27.24 26.7598 24.88C26.7598 22.52 28.4398 21.1 30.7398 21.1H37.7798C40.0798 21.1 41.7598 22.52 41.7598 24.88C41.7598 27.24 40.0798 28.66 37.7798 28.66ZM41.4998 20.68H38.7798V16.92H37.0198V20.42H34.3398V18.46L32.7198 20.1C31.6598 19 30.7398 18.12 29.6998 17C28.6198 18.2 27.4398 19.38 26.2798 20.58L24.3198 19C25.3798 17.92 26.8798 16.28 27.7398 15.24C28.0998 14.8 28.2398 14.26 28.2398 13.58V11.3H30.9998V13.58C30.9998 14.26 31.1398 14.82 31.4998 15.24C32.2798 16.2 33.2798 17.14 34.3398 18.18V11.24H37.0198V14.28H38.7798V11.04H41.4998V20.68ZM37.4798 23.5H31.0398C30.0798 23.5 29.5198 24 29.5198 24.88C29.5198 25.76 30.0798 26.26 31.0398 26.26H37.4798C38.4398 26.26 38.9998 25.76 38.9998 24.88C38.9998 24 38.4398 23.5 37.4798 23.5Z" fill="#FF4B42"/>
<path d="M58.8983 28.74H45.0183V24.54H55.7383V23.96H45.0183V21.96H58.4983V26.16H47.7783V26.74H58.8983V28.74ZM54.9383 21.42H42.8183V19.42H47.5183V18.92C44.9783 18.72 43.4383 17.98 43.4383 16.56C43.4383 14.9 45.5583 14.16 48.9183 14.16C52.2783 14.16 54.3983 14.9 54.3983 16.56C54.3983 17.98 52.8583 18.72 50.3183 18.92V19.42H54.9383V21.42ZM58.4983 21.46H55.7383V11.04H58.4983V15.26H60.5983V17.8H58.4983V21.46ZM54.5383 13.84H43.2983V11.8H47.5183V10.46H50.3183V11.8H54.5383V13.84ZM51.6383 16.56C51.6383 16.36 50.5983 16.2 48.9183 16.2C47.2383 16.2 46.1983 16.36 46.1983 16.56C46.1983 16.76 47.2383 16.92 48.9183 16.92C50.5983 16.92 51.6383 16.76 51.6383 16.56Z" fill="#FF4B42"/>
<path d="M77.4567 23.88H74.6967V18.08H70.9567C70.6767 18.32 70.3167 18.52 69.8367 18.72C67.5367 19.7 64.9767 20.68 62.4767 21.6L61.5167 19.48C63.9567 18.52 66.0367 17.64 68.0767 16.74C68.6767 16.48 68.9367 16.08 68.9367 15.38V14H62.3767V11.6H71.6967V15.54H74.6967V11.04H77.4567V23.88ZM77.8767 28.54H63.6567V22.5H66.4167V26.1H77.8767V28.54Z" fill="#FF4B42"/>
<path d="M91.6351 28.66H85.1951C82.8951 28.66 81.2151 27.24 81.2151 24.88C81.2151 22.52 82.8951 21.1 85.1951 21.1H91.6351C93.9351 21.1 95.6151 22.52 95.6151 24.88C95.6151 27.24 93.9351 28.66 91.6351 28.66ZM86.9351 14.68V13.9H80.3751V11.5H89.6951V15.1C89.6951 16.82 89.2951 17.4 87.8351 18.02C85.5351 19 82.9751 19.98 80.4751 20.9L79.5151 18.78C81.9551 17.82 84.0351 16.94 86.0751 16.04C86.6751 15.78 86.9351 15.38 86.9351 14.68ZM95.1551 20.58H92.3951V11.04H95.1551V14.34H97.3951V16.88H95.1551V20.58ZM91.3351 23.5H85.4951C84.5351 23.5 83.9751 24 83.9751 24.88C83.9751 25.76 84.5351 26.26 85.4951 26.26H91.3351C92.2951 26.26 92.8551 25.76 92.8551 24.88C92.8551 24 92.2951 23.5 91.3351 23.5Z" fill="#FF4B42"/>
<path d="M30.778 7.79194H25.522V0.564941H30.634C31.408 0.564941 31.948 1.10494 31.948 1.87894V2.93194C31.948 3.47194 31.687 3.84994 31.264 4.03894C31.75 4.20094 32.074 4.60594 32.092 5.17294V6.47794C32.092 7.25194 31.552 7.79194 30.778 7.79194ZM30.292 6.17194V4.82194H27.322V6.17194H30.292ZM30.148 3.33694V2.18494H27.322V3.33694H30.148Z" fill="#FF4B42"/>
<path d="M34.9375 7.79194H33.0475V0.564941H34.9375V7.79194Z" fill="#FF4B42"/>
<path d="M41.0591 7.79194H37.3691C36.5951 7.79194 36.0551 7.25194 36.0551 6.47794V0.564941H37.8551V6.17194H41.0591V7.79194Z" fill="#FF4B42"/>
<path d="M46.8356 7.79194H43.1456C42.3716 7.79194 41.8316 7.25194 41.8316 6.47794V0.564941H43.6316V6.17194H46.8356V7.79194Z" fill="#FF4B42"/>
<path d="M54.7324 7.79194H51.0424C50.2684 7.79194 49.7284 7.25194 49.7284 6.47794V0.564941H51.5284V6.17194H54.7324V7.79194Z" fill="#FF4B42"/>
<path d="M61.8139 7.79194H56.8189C56.0449 7.79194 55.5049 7.25194 55.5049 6.47794V1.87894C55.5049 1.10494 56.0449 0.564941 56.8189 0.564941H61.8139V2.18494H57.3049V3.33694H61.6699V4.82194H57.3049V6.17194H61.8139V7.79194Z" fill="#FF4B42"/>
<path d="M66.8404 7.79194H65.0314V2.19394H62.6284V0.573941H69.2434V2.19394H66.8404V7.79194Z" fill="#FF4B42"/>
<path d="M73.9968 7.79194H72.1878V2.19394H69.7848V0.573941H76.3998V2.19394H73.9968V7.79194Z" fill="#FF4B42"/>
<path d="M83.4413 7.79194H78.4463C77.6723 7.79194 77.1323 7.25194 77.1323 6.47794V1.87894C77.1323 1.10494 77.6723 0.564941 78.4463 0.564941H83.4413V2.18494H78.9323V3.33694H83.2973V4.82194H78.9323V6.17194H83.4413V7.79194Z" fill="#FF4B42"/>
<path d="M91.3409 7.79194H89.2259L87.9119 5.50594H86.2649V7.79194H84.4649V0.564941H89.4869C90.2609 0.564941 90.8009 1.10494 90.8009 1.87894V4.19194C90.8009 4.82194 90.4409 5.28994 89.9009 5.45194L91.3409 7.79194ZM89.0009 3.88594V2.18494H86.2649V3.88594H89.0009Z" fill="#FF4B42"/>
<path fill-rule="evenodd" clip-rule="evenodd" d="M22 0H0V26.2035L1.28313 27.5355L4.68875 24L8.09438 27.5355L11.5 24L14.9056 27.5355L18.3112 24L21.7169 27.5355L22 27.2416V0Z" fill="url(#paint0_linear_9_435)"/>
<rect x="3" y="6" width="13" height="2" rx="1" fill="white"/>
<rect x="3" y="11" width="7" height="2" rx="1" fill="white"/>
<defs>
<linearGradient id="paint0_linear_9_435" x1="11.0429" y1="-2.19923" x2="11.0429" y2="32.4461" gradientUnits="userSpaceOnUse">
<stop stop-color="#FF6B63"/>
<stop offset="1" stop-color="#FF50A4"/>
</linearGradient>
</defs>
</svg>
