<svg width="28" height="28" viewBox="0 0 28 28" fill="none" xmlns="http://www.w3.org/2000/svg">
<path d="M23 14C23 15.1819 22.7672 16.3522 22.3149 17.4442C21.8626 18.5361 21.1997 19.5282 20.364 20.364C19.5282 21.1997 18.5361 21.8626 17.4442 22.3149C16.3522 22.7672 15.1819 23 14 23C12.8181 23 11.6478 22.7672 10.5558 22.3149C9.46392 21.8626 8.47177 21.1997 7.63604 20.364C6.80031 19.5282 6.13738 18.5361 5.68508 17.4442C5.23279 16.3522 5 15.1819 5 14L14 14H23Z" stroke="black" stroke-width="3"/>
<path d="M17 13.5C17 12.7777 16.8577 12.0625 16.5813 11.3952C16.3049 10.728 15.8998 10.1216 15.3891 9.61091C14.8784 9.10019 14.272 8.69506 13.6048 8.41866C12.9375 8.14226 12.2223 8 11.5 8C10.7777 8 10.0625 8.14226 9.39524 8.41866C8.72795 8.69506 8.12163 9.10019 7.61091 9.61091C7.10019 10.1216 6.69506 10.728 6.41866 11.3952C6.14226 12.0625 6 12.7777 6 13.5L11.5 13.5H17Z" stroke="black" stroke-width="3"/>
<path d="M22.4887 14C22.4887 13.0321 22.2546 12.0786 21.8063 11.2208C21.3579 10.3631 20.7088 9.62647 19.9141 9.07391C19.1195 8.52134 18.203 8.16922 17.2428 8.04758C16.2826 7.92593 15.3072 8.03838 14.3999 8.37533" stroke="black" stroke-width="3"/>
</svg>
