<svg width="24" height="24" viewBox="0 0 24 24" fill="none" xmlns="http://www.w3.org/2000/svg">
<circle cx="12" cy="12" r="12" fill="#FF0808"/>
<path fill-rule="evenodd" clip-rule="evenodd" d="M14.0259 4.65893C14.0258 4.65857 14.0257 4.65822 14.5 4.50011C14.9743 4.34199 14.9742 4.34165 14.9741 4.34131L14.9735 4.33947L14.9728 4.33747L14.9719 4.33496C14.9731 4.33796 14.9765 4.34654 14.9819 4.35848C14.9927 4.3824 15.0125 4.42257 15.0438 4.47376C15.1063 4.57601 15.2142 4.72157 15.3879 4.87048C15.7268 5.161 16.3585 5.50011 17.5 5.50011V6.50011C16.1415 6.50011 15.2732 6.08922 14.7371 5.62974C14.4733 5.40364 14.2999 5.1742 14.1905 4.99521C14.1359 4.90577 14.0971 4.82875 14.0708 4.77064C14.0577 4.74157 14.0476 4.71715 14.0402 4.69818C14.0365 4.68869 14.0335 4.68055 14.0311 4.67386L14.0279 4.66492L14.0267 4.66129L14.0259 4.65893Z" fill="#861616"/>
<path fill-rule="evenodd" clip-rule="evenodd" d="M9.9741 4.65893C9.97422 4.65857 9.97434 4.65822 9.5 4.50011C9.02566 4.34199 9.02577 4.34165 9.02589 4.34131L9.02651 4.33947L9.02719 4.33747L9.02808 4.33496C9.02691 4.33796 9.02348 4.34654 9.01808 4.35848C9.00725 4.3824 8.98745 4.42257 8.95617 4.47376C8.89368 4.57601 8.78583 4.72157 8.6121 4.87048C8.27317 5.161 7.64154 5.50011 6.5 5.50011V6.50011C7.85846 6.50011 8.72683 6.08922 9.2629 5.62974C9.52667 5.40364 9.70007 5.1742 9.80945 4.99521C9.86411 4.90577 9.9029 4.82875 9.92919 4.77064C9.94234 4.74157 9.9524 4.71715 9.95978 4.69818C9.96347 4.68869 9.96649 4.68055 9.9689 4.67386L9.97206 4.66492L9.97331 4.66129L9.9741 4.65893Z" fill="#861616"/>
<path d="M10 9.50011C10 10.3285 9.32843 11.0001 8.5 11.0001C7.67157 11.0001 7 10.3285 7 9.50011C7 8.67168 7.67157 8.00011 8.5 8.00011C9.32843 8.00011 10 8.67168 10 9.50011Z" fill="#861616"/>
<path d="M17 9.50011C17 10.3285 16.3284 11.0001 15.5 11.0001C14.6716 11.0001 14 10.3285 14 9.50011C14 8.67168 14.6716 8.00011 15.5 8.00011C16.3284 8.00011 17 8.67168 17 9.50011Z" fill="#861616"/>
<path fill-rule="evenodd" clip-rule="evenodd" d="M9.41969 16.5603C9.41984 16.5602 9.42 16.5601 9 16.0001C8.58 15.4401 8.58017 15.44 8.58034 15.4398L8.58156 15.4389L8.58363 15.4374L8.58924 15.4333L8.60637 15.4208C8.62037 15.4107 8.63952 15.3971 8.66357 15.3806C8.71166 15.3475 8.77953 15.3023 8.86522 15.2491C9.0362 15.143 9.28036 15.0036 9.58166 14.8645C10.1785 14.5891 11.0314 14.3001 12 14.3001C12.9686 14.3001 13.8215 14.5891 14.4183 14.8645C14.7196 15.0036 14.9638 15.143 15.1348 15.2491C15.2205 15.3023 15.2883 15.3475 15.3364 15.3806C15.3605 15.3971 15.3796 15.4107 15.3936 15.4208L15.4108 15.4333L15.4164 15.4374L15.4184 15.4389L15.4193 15.4396C15.4195 15.4397 15.42 15.4401 15 16.0001C14.58 16.5601 14.5802 16.5602 14.5803 16.5603L14.5815 16.5612L14.5756 16.557C14.5693 16.5524 14.5581 16.5445 14.5425 16.5337C14.5111 16.5121 14.4618 16.4792 14.3965 16.4386C14.2654 16.3572 14.072 16.2466 13.8317 16.1357C13.3451 15.9111 12.6981 15.7001 12 15.7001C11.3019 15.7001 10.6549 15.9111 10.1683 16.1357C9.92797 16.2466 9.73464 16.3572 9.60353 16.4386C9.53817 16.4792 9.48886 16.5121 9.45752 16.5337C9.44186 16.5445 9.43074 16.5524 9.42439 16.557L9.41851 16.5612L9.41969 16.5603ZM9.41851 16.5612C9.41813 16.5615 9.41826 16.5614 9.41851 16.5612V16.5612Z" fill="#861616"/>
</svg>
