<svg width="24" height="24" viewBox="0 0 24 24" fill="none" xmlns="http://www.w3.org/2000/svg">
<circle cx="12" cy="12" r="12" fill="#1ABC17"/>
<path d="M16.3542 14H7.64576C7.3188 14 7.0894 14.3058 7.2161 14.6072C7.68645 15.7261 9.01012 18 12 18C14.9899 18 16.3136 15.7261 16.7839 14.6072C16.9106 14.3058 16.6812 14 16.3542 14Z" fill="#096907"/>
<path d="M10 9.5C10 10.3284 9.32843 11 8.5 11C7.67157 11 7 10.3284 7 9.5C7 8.67157 7.67157 8 8.5 8C9.32843 8 10 8.67157 10 9.5Z" fill="#096907"/>
<path d="M17 9.5C17 10.3284 16.3284 11 15.5 11C14.6716 11 14 10.3284 14 9.5C14 8.67157 14.6716 8 15.5 8C16.3284 8 17 8.67157 17 9.5Z" fill="#096907"/>
</svg>
